<?xml version="1.0" encoding="UTF-8" standalone="no"?>
<!-- Generated by IcoMoon.io -->

<svg
   version="1.1"
   width="946"
   height="1024"
   viewBox="0 0 946 1024"
   id="svg1"
   sodipodi:docname="a.svg"
   inkscape:version="1.3.2 (091e20e, 2023-11-25, custom)"
   xmlns:inkscape="http://www.inkscape.org/namespaces/inkscape"
   xmlns:sodipodi="http://sodipodi.sourceforge.net/DTD/sodipodi-0.dtd"
   xmlns="http://www.w3.org/2000/svg"
   xmlns:svg="http://www.w3.org/2000/svg">
  <defs
     id="defs1" />
  <sodipodi:namedview
     id="namedview1"
     pagecolor="#ffffff"
     bordercolor="#000000"
     borderopacity="0.25"
     inkscape:showpageshadow="2"
     inkscape:pageopacity="0.0"
     inkscape:pagecheckerboard="0"
     inkscape:deskcolor="#d1d1d1"
     inkscape:zoom="0.84082031"
     inkscape:cx="472.15796"
     inkscape:cy="510.81069"
     inkscape:window-width="1920"
     inkscape:window-height="1057"
     inkscape:window-x="-8"
     inkscape:window-y="676"
     inkscape:window-maximized="1"
     inkscape:current-layer="svg1" />
  <path
     d="m 643.6371,130 q 75,40.5 126.25,106 51.25,65.5 72.25,141.25 21,75.75 11,159.25 -10,83.5 -53,158.5 -59,104 -161,162.25 -102,58.25 -216.5,58.25 -56.5,0 -118.25,-16.75 -61.75,-16.75 -104.25,-46.75 -1.5,-0.5 -19.5,-9.5 -5,-2.5 -25.5,-15 30.5,11 60.5,11 81.5,0 157.5,-70.25 76,-70.25 118,-187.75 51,-148.5 21.5,-288 3,52.5 -10.25,107.5 -13.25,55 -42.75,102.5 -45,74.5 -116,114.75 -71,40.25 -142.5,40.25 -56,0 -111.500003,-33 17.500003,6 37.000003,6 62.5,0 133.75,-52 71.25,-52 124.25,-138.5 40.5,-66 57.25,-132.75 16.75,-66.75 7.25,-119.25 -9.5,-52.5 -44,-78.5 1,0.5 2.5,1 1.5,0.5 2.5,1 l -4,-3 q 4.5,2 13.25,6 8.75,4 13.25,6 56.5,30.5 98,87 41.5,56.5 61.75,124.75 20.25,68.25 18.75,147 -1.5,78.75 -27,152.25 -30.5,86 -85.75,145.75 -55.25,59.75 -123.75,82.75 89.5,-19 169.75,-79.25 80.25,-60.25 132.25,-152.25 54,-94 63.75,-194.75 9.75,-100.75 -24.75,-185.5 -34.5,-84.75 -106.5,-134.75 17.5,7.5 34.5,16.5 z"
     id="path1-5"
     style="fill:#dedede;fill-opacity:1"
     inkscape:label="a" />
</svg>
