<?xml version="1.0" encoding="UTF-8" standalone="no"?>
<!-- Generated by IcoMoon.io -->

<svg
   version="1.1"
   width="946"
   height="1024"
   viewBox="0 0 946 1024"
   id="svg1"
   sodipodi:docname="aA.svg"
   inkscape:version="1.3.2 (091e20e, 2023-11-25, custom)"
   xmlns:inkscape="http://www.inkscape.org/namespaces/inkscape"
   xmlns:sodipodi="http://sodipodi.sourceforge.net/DTD/sodipodi-0.dtd"
   xmlns="http://www.w3.org/2000/svg"
   xmlns:svg="http://www.w3.org/2000/svg">
  <defs
     id="defs1" />
  <sodipodi:namedview
     id="namedview1"
     pagecolor="#ffffff"
     bordercolor="#000000"
     borderopacity="0.25"
     inkscape:showpageshadow="2"
     inkscape:pageopacity="0.0"
     inkscape:pagecheckerboard="0"
     inkscape:deskcolor="#d1d1d1"
     inkscape:zoom="0.84082031"
     inkscape:cx="472.15796"
     inkscape:cy="510.81069"
     inkscape:window-width="1920"
     inkscape:window-height="1057"
     inkscape:window-x="-8"
     inkscape:window-y="676"
     inkscape:window-maximized="1"
     inkscape:current-layer="svg1" />
  <path
     d="m 643.02002,130.164 q 75,40.5 126.25,106 51.25,65.5 72.25,141.25 21,75.75 11,159.25 -10,83.5 -53,158.5 -34,60 -84.5,106.25 -50.5,46.25 -110.5,73.25 -60,27 -124.5,36.75 -64.5,9.75 -131.25,-2 -66.75,-11.75 -126.75,-44.25 -21.5,-12.5 -22.5,-13 -1.5,-0.5 -19.5,-9.5 -5,-2.5 -25.5,-15 61.5,22.5 126.75,-1.25 65.25,-23.75 121,-88.5 55.75,-64.75 88.25,-157.25 51,-148.5 21.5,-288 3,52.5 -10.25,107.5 -13.25,55 -42.75,102.5 -31.5,52 -77.75,88.5 -46.25,36.5 -94.5,51.75 -48.25,15.25 -96,13.75 -47.75,-1.5 -85.25,-21.5 -3.5,-1.5 -9.250004,-5.5 -5.75,-4 -7.25,-5 63.500004,21.5 148.250004,-31.25 84.75,-52.75 146.75,-153.25 40.5,-66 57.25,-132.75 16.75,-66.75 7.25,-119.25 -9.5,-52.5 -44,-78.5 1,0.5 2.5,1 1.5,0.5 2.5,1 l -4,-3 q 4.5,2 13.25,6 8.75,4 13.25,6 56.5,30.5 98,87 41.5,56.5 61.75,124.75 20.25,68.25 18.75,147 -1.5,78.75 -27,152.25 -30.5,86 -85.75,145.75 -55.25,59.75 -123.75,82.75 89.5,-19 169.75,-79.25 80.25,-60.25 132.25,-152.25 54,-94 63.75,-194.75 9.75,-100.75 -24.75,-185.5 -34.5,-84.75 -106.5,-134.75 17.5,7.5 34.5,16.5 z m -34.5,-16.5 q 72,50 106.5,134.75 34.5,84.75 24.75,185.5 -9.75,100.75 -63.75,194.75 -52,92 -132.25,152.25 -80.25,60.25 -169.75,79.25 68.5,-23 123.75,-82.75 55.25,-59.75 85.75,-145.75 25.5,-73.5 27,-152.25 1.5,-78.75 -18.75,-147 -20.25,-68.25 -61.75,-124.75 -41.5,-56.5 -98,-87 -4.5,-2 -13.25,-6 -8.75,-4 -13.25,-6 l 4,3 q -1,-0.5 -2.5,-1 -1.5,-0.5 -2.5,-1 34.5,26 44,78.5 9.5,52.5 -7.25,119.25 -16.75,66.75 -57.25,132.75 -62,100.5 -146.75,153.25 -84.75,52.75 -148.250004,31.25 1.5,1 7.25,5 5.750004,4 9.250004,5.5 37.5,20 85.25,21.5 47.75,1.5 96,-13.75 48.25,-15.25 94.5,-51.75 46.25,-36.5 77.75,-88.5 29.5,-47.5 42.75,-102.5 13.25,-55 10.25,-107.5 29.5,139.5 -21.5,288 -32.5,92.5 -88.25,157.25 -55.75,64.75 -121,88.5 -65.25,23.75 -126.75,1.25 20.5,12.5 25.5,15 18,9 19.5,9.5 1,0.5 22.5,13 60,32.5 126.75,44.25 66.75,11.75 131.25,2 64.5,-9.75 124.5,-36.75 60,-27 110.5,-73.25 50.5,-46.25 84.5,-106.25 43,-75 53,-158.5 10,-83.5 -11,-159.25 -21,-75.75 -72.25,-141.25 -51.25,-65.5 -126.25,-106 -17,-9 -34.5,-16.5 z m -122,184.5 52,-7.5 q 3,57.5 -11,116.5 -14,59 -46,110 -34.5,56.5 -85,95.75 -50.5,39.25 -103.5,55.75 -53,16.5 -105.75,14 -52.75,-2.5 -94.250004,-25 -6.5,-2.5 -19.5,-11.5 -10.5,-10 -10,-22 0.5,-12 11.25,-20.75 10.75,-8.75 23.75,-4.25 52.000004,18 128.500004,-30.75 76.5,-48.75 134.5,-142.25 37.5,-60.5 53.25,-121.75 15.75,-61.25 8.5,-106.75 -7.25,-45.5 -34.25,-66.5 -11.5,-10.5 -9.75,-24 1.75,-13.499997 12.75,-19.999997 l 1.5,-0.5 q 1.5,-1 3.5,-2 2,-1 4.75,-1.75 2.75,-0.75 6.25,-0.5 3.5,0.25 7.5,1.75 28,12.5 29,13 61.5,32.999997 106.25,93.249997 44.75,60.25 66.5,133 21.75,72.75 20.5,156 -1.25,83.25 -28.25,160.75 -32,92 -92,155.75 -60,63.75 -135.5,88.75 l -13.5,-51 q 83.5,-17.5 159.5,-74.25 76,-56.75 125.5,-143.75 51,-89.5 59.75,-184.5 8.75,-95 -23.25,-173 -32,-78 -97,-123 -10.5,-9.5 -9.75,-21.75 0.75,-12.25 11.75,-20.999997 11,-8.75 23.5,-3.25 3,1.5 37,17.499997 80,43 134.75,113.25 54.75,70.25 77,150.75 22.25,80.5 12,169.75 -10.25,89.25 -55.75,168.25 -45.5,79 -117.5,134.75 -72,55.75 -154.25,80 -82.25,24.25 -172.25,16.25 -90,-8 -169.5,-51 -12,-6 -22.5,-13 -10.5,-4.5 -19.5,-9.5 -14.5,-7.5 -27.5,-17 -11,-9.5 -10.75,-21.75 0.25,-12.25 11.25,-21 11,-8.75 24,-3.75 50.5,19 107.25,-1 56.75,-20 109.25,-80 52.5,-60 83.5,-149 24,-68.5 29.25,-141.75 5.25,-73.25 -7.75,-132.75 z m 156.5,-168 q 75,40.5 126.25,106 51.25,65.5 72.25,141.25 21,75.75 11,159.25 -10,83.5 -53,158.5 -34,60 -84.5,106.25 -50.5,46.25 -110.5,73.25 -60,27 -124.5,36.75 -64.5,9.75 -131.25,-2 -66.75,-11.75 -126.75,-44.25 -21.5,-12.5 -22.5,-13 -1.5,-0.5 -19.5,-9.5 -5,-2.5 -25.5,-15 61.5,22.5 126.75,-1.25 65.25,-23.75 121,-88.5 55.75,-64.75 88.25,-157.25 51,-148.5 21.5,-288 3,52.5 -10.25,107.5 -13.25,55 -42.75,102.5 -31.5,52 -77.75,88.5 -46.25,36.5 -94.5,51.75 -48.25,15.25 -96,13.75 -47.75,-1.5 -85.25,-21.5 -3.5,-1.5 -9.250004,-5.5 -5.75,-4 -7.25,-5 63.500004,21.5 148.250004,-31.25 84.75,-52.75 146.75,-153.25 40.5,-66 57.25,-132.75 16.75,-66.75 7.25,-119.25 -9.5,-52.5 -44,-78.5 1,0.5 2.5,1 1.5,0.5 2.5,1 l -4,-3 q 4.5,2 13.25,6 8.75,4 13.25,6 56.5,30.5 98,87 41.5,56.5 61.75,124.75 20.25,68.25 18.75,147 -1.5,78.75 -27,152.25 -30.5,86 -85.75,145.75 -55.25,59.75 -123.75,82.75 89.5,-19 169.75,-79.25 80.25,-60.25 132.25,-152.25 54,-94 63.75,-194.75 9.75,-100.75 -24.75,-185.5 -34.5,-84.75 -106.5,-134.75 17.5,7.5 34.5,16.5 z"
     id="path1"
     style="display:inline"
     inkscape:label="A" />
  <path
     d="m 643.6371,130 q 75,40.5 126.25,106 51.25,65.5 72.25,141.25 21,75.75 11,159.25 -10,83.5 -53,158.5 -59,104 -161,162.25 -102,58.25 -216.5,58.25 -56.5,0 -118.25,-16.75 -61.75,-16.75 -104.25,-46.75 -1.5,-0.5 -19.5,-9.5 -5,-2.5 -25.5,-15 30.5,11 60.5,11 81.5,0 157.5,-70.25 76,-70.25 118,-187.75 51,-148.5 21.5,-288 3,52.5 -10.25,107.5 -13.25,55 -42.75,102.5 -45,74.5 -116,114.75 -71,40.25 -142.5,40.25 -56,0 -111.500005,-33 17.500005,6 37.000005,6 62.5,0 133.75,-52 71.25,-52 124.25,-138.5 40.5,-66 57.25,-132.75 16.75,-66.75 7.25,-119.25 -9.5,-52.5 -44,-78.5 1,0.5 2.5,1 1.5,0.5 2.5,1 l -4,-3 q 4.5,2 13.25,6 8.75,4 13.25,6 56.5,30.5 98,87 41.5,56.5 61.75,124.75 20.25,68.25 18.75,147 -1.5,78.75 -27,152.25 -30.5,86 -85.75,145.75 -55.25,59.75 -123.75,82.75 89.5,-19 169.75,-79.25 80.25,-60.25 132.25,-152.25 54,-94 63.75,-194.75 9.75,-100.75 -24.75,-185.5 -34.5,-84.75 -106.5,-134.75 17.5,7.5 34.5,16.5 z"
     id="path1-5"
     style="fill:#cfd600;fill-opacity:1"
     inkscape:label="a" />
</svg>
