<?xml version="1.0" encoding="UTF-8" standalone="no"?>
<!-- Generated by IcoMoon.io -->

<svg
   version="1.1"
   width="698"
   height="1024"
   viewBox="0 0 698 1024"
   id="svg1"
   sodipodi:docname="bB.svg"
   inkscape:version="1.3.2 (091e20e, 2023-11-25, custom)"
   xmlns:inkscape="http://www.inkscape.org/namespaces/inkscape"
   xmlns:sodipodi="http://sodipodi.sourceforge.net/DTD/sodipodi-0.dtd"
   xmlns="http://www.w3.org/2000/svg"
   xmlns:svg="http://www.w3.org/2000/svg">
  <defs
     id="defs1" />
  <sodipodi:namedview
     id="namedview1"
     pagecolor="#ffffff"
     bordercolor="#000000"
     borderopacity="0.25"
     inkscape:showpageshadow="2"
     inkscape:pageopacity="0.0"
     inkscape:pagecheckerboard="0"
     inkscape:deskcolor="#d1d1d1"
     inkscape:zoom="0.84082031"
     inkscape:cx="348.46922"
     inkscape:cy="510.81069"
     inkscape:window-width="1920"
     inkscape:window-height="1057"
     inkscape:window-x="-8"
     inkscape:window-y="676"
     inkscape:window-maximized="1"
     inkscape:current-layer="svg1" />
  <path
     d="m 212.44571,108.62195 h 291 l -108.5,241.5 h 214 l -431.5,565.5 120,-370 H 88.445706 Z m 0,0 -124.000004,437 H 297.44571 l -120,370 431.5,-565.5 h -214 l 108.5,-241.5 z m 315.5,11.5 -91.5,203.5 h 172.5 q 17.5,0 24.5,14.5 7,14.5 -4,28.5 l -430.5,565.5 q -10,10 -21.75,9.75 -11.75,-0.25 -20.5,-11 -8.75,-10.75 -4.75,-23.75 l 108.5,-334.5 H 88.445706 q -14,0 -21.5,-10 -7.5,-10 -4,-24 l 124.000004,-437 q 2,-7.499998 10,-13.499998 8,-6 15.5,-6 h 291 q 15.5,0 23,11.75 7.5,11.749998 1.5,26.249998 z m -315.5,-11.5 h 291 l -108.5,241.5 h 214 l -431.5,565.5 120,-370 H 88.445706 Z"
     id="path1"
     inkscape:label="B" />
  <path
     d="m 212.75,108.5 h 291 L 395.25,350 h 214 l -431.5,565.5 120,-370 h -209 z"
     id="path1-1"
     style="fill:#ffef26;fill-opacity:1"
     inkscape:label="b" />
</svg>
