<?xml version="1.0" encoding="UTF-8" standalone="no"?>
<!-- Generated by IcoMoon.io -->

<svg
   version="1.1"
   width="986"
   height="1024"
   viewBox="0 0 986 1024"
   id="svg1"
   sodipodi:docname="dD.svg"
   inkscape:version="1.3.2 (091e20e, 2023-11-25, custom)"
   xmlns:inkscape="http://www.inkscape.org/namespaces/inkscape"
   xmlns:sodipodi="http://sodipodi.sourceforge.net/DTD/sodipodi-0.dtd"
   xmlns="http://www.w3.org/2000/svg"
   xmlns:svg="http://www.w3.org/2000/svg">
  <defs
     id="defs1" />
  <sodipodi:namedview
     id="namedview1"
     pagecolor="#ffffff"
     bordercolor="#000000"
     borderopacity="0.25"
     inkscape:showpageshadow="2"
     inkscape:pageopacity="0.0"
     inkscape:pagecheckerboard="0"
     inkscape:deskcolor="#d1d1d1"
     inkscape:zoom="0.84082031"
     inkscape:cx="492.37631"
     inkscape:cy="423.99071"
     inkscape:window-width="1920"
     inkscape:window-height="1057"
     inkscape:window-x="-8"
     inkscape:window-y="676"
     inkscape:window-maximized="1"
     inkscape:current-layer="svg1" />
  <path
     d="m 877.5,389.5 q 18.5,57.5 18.5,122 0,82 -32,157 -32,75 -86,129.25 Q 724,852 649.25,884 574.5,916 492.5,916 383.5,916 290.5,861.75 197.5,807.5 143.25,714.25 89,621 89,511.5 q 0,-109 54.25,-202 54.25,-93 147.25,-147.25 93,-54.25 202,-54.25 62,0 123,19.5 Q 546,118 479,140 q -67,22 -118.5,73.5 -59,58.5 -80,137 -21,78.5 0,157 21,78.5 80,137 58.5,58.5 136.75,79.25 78.25,20.75 156.75,0 Q 732.5,703 791.5,644.5 843,593 865,525.5 887,458 877.5,389.5 Z m -262,-262 q -61,-19.5 -123,-19.5 -109,0 -202,54.25 -93,54.25 -147.25,147.25 -54.25,93 -54.25,202 0,109.5 54.25,202.75 54.25,93.25 147.25,147.5 93,54.25 202,54.25 82,0 156.75,-32 Q 724,852 778,797.75 832,743.5 864,668.5 q 32,-75 32,-157 0,-64.5 -18.5,-122 9.5,68.5 -12.5,136 -22,67.5 -73.5,119 -59,58.5 -137.5,79.25 -78.5,20.75 -156.75,0 Q 419,703 360.5,644.5 q -59,-58.5 -80,-137 -21,-78.5 0,-157 21,-78.5 80,-137 Q 412,162 479,140 546,118 615.5,127.5 Z m 288.5,254 q 20.5,62.5 20.5,130 0,88 -34.25,168 -34.25,80 -92,137.75 -57.75,57.75 -137.75,92 -80,34.25 -168,34.25 -87.5,0 -167.25,-34.25 Q 245.5,875 187.75,817.25 130,759.5 95.75,679.5 61.5,599.5 61.5,511.5 61.5,424 95.75,344.25 130,264.5 187.75,206.75 245.5,149 325.25,114.75 405,80.5 492.5,80.5 q 68.5,0 131,20.5 13.5,4.5 16.5,18.25 3,13.75 -5.5,25.5 -8.5,11.75 -23,10.25 -62.5,-8.5 -123.5,11.5 -61,20 -108,66.5 -53.5,53.5 -72.5,124.75 -19,71.25 0,142.5 19,71.25 72.5,124.75 53.5,53.5 124.75,72.5 71.25,19 142.5,0 71.25,-19 124.75,-72.5 46.5,-47 66.5,-108.25 20,-61.25 11.5,-124.25 -2,-14 9.75,-22.5 11.75,-8.5 25.75,-5.5 14,3 18.5,17 z m -26.5,8 q 18.5,57.5 18.5,122 0,82 -32,157 -32,75 -86,129.25 Q 724,852 649.25,884 574.5,916 492.5,916 383.5,916 290.5,861.75 197.5,807.5 143.25,714.25 89,621 89,511.5 q 0,-109 54.25,-202 54.25,-93 147.25,-147.25 93,-54.25 202,-54.25 62,0 123,19.5 Q 546,118 479,140 q -67,22 -118.5,73.5 -59,58.5 -80,137 -21,78.5 0,157 21,78.5 80,137 58.5,58.5 136.75,79.25 78.25,20.75 156.75,0 Q 732.5,703 791.5,644.5 843,593 865,525.5 887,458 877.5,389.5 Z"
     id="path1"
     inkscape:label="D" />
  <path
     d="m 878,389.5 q 18.5,57.5 18.5,122 0,82 -32,157 -32,75 -86,129.25 Q 724.5,852 649.75,884 575,916 493,916 384,916 291,861.75 198,807.5 143.75,714.25 89.5,621 89.5,511.5 q 0,-109 54.25,-202 Q 198,216.5 291,162.25 384,108 493,108 q 62,0 123,19.5 -20,-3 -41,-3 -59.5,0 -114.75,22.5 -55.25,22.5 -99.25,66.5 -59,58.5 -80,137 -21,78.5 0,157 21,78.5 80,137 44,44 99.75,66.5 55.75,22.5 115.25,22.5 60,0 116,-22.5 56,-22.5 100,-66.5 51.5,-51.5 73.5,-119 22,-67.5 12.5,-136 z"
     id="path1-6"
     style="fill:#543987;fill-opacity:1"
     inkscape:label="d" />
</svg>
