<?xml version="1.0" encoding="UTF-8" standalone="no"?>
<!-- Generated by IcoMoon.io -->

<svg
   version="1.1"
   width="986"
   height="1024"
   viewBox="0 0 986 1024"
   id="svg1"
   sodipodi:docname="d.svg"
   inkscape:version="1.3.2 (091e20e, 2023-11-25, custom)"
   xmlns:inkscape="http://www.inkscape.org/namespaces/inkscape"
   xmlns:sodipodi="http://sodipodi.sourceforge.net/DTD/sodipodi-0.dtd"
   xmlns="http://www.w3.org/2000/svg"
   xmlns:svg="http://www.w3.org/2000/svg">
  <defs
     id="defs1" />
  <sodipodi:namedview
     id="namedview1"
     pagecolor="#ffffff"
     bordercolor="#000000"
     borderopacity="0.25"
     inkscape:showpageshadow="2"
     inkscape:pageopacity="0.0"
     inkscape:pagecheckerboard="0"
     inkscape:deskcolor="#d1d1d1"
     inkscape:zoom="0.84082031"
     inkscape:cx="492.37631"
     inkscape:cy="423.99071"
     inkscape:window-width="1920"
     inkscape:window-height="1057"
     inkscape:window-x="-8"
     inkscape:window-y="676"
     inkscape:window-maximized="1"
     inkscape:current-layer="svg1" />
  <path
     d="m 878,389.5 q 18.5,57.5 18.5,122 0,82 -32,157 -32,75 -86,129.25 Q 724.5,852 649.75,884 575,916 493,916 384,916 291,861.75 198,807.5 143.75,714.25 89.500001,621 89.500001,511.5 q 0,-109 54.249999,-202 Q 198,216.5 291,162.25 384,108 493,108 q 62,0 123,19.5 -20,-3 -41,-3 -59.5,0 -114.75,22.5 -55.25,22.5 -99.25,66.5 -59,58.5 -80,137 -21,78.5 0,157 21,78.5 80,137 44,44 99.75,66.5 55.75,22.5 115.25,22.5 60,0 116,-22.5 56,-22.5 100,-66.5 51.5,-51.5 73.5,-119 22,-67.5 12.5,-136 z"
     id="path1-6"
     style="fill:#dedede;fill-opacity:1"
     inkscape:label="d" />
</svg>
