<?xml version="1.0" encoding="UTF-8" standalone="no"?>
<!-- Generated by IcoMoon.io -->

<svg
   version="1.1"
   width="1024"
   height="1024"
   viewBox="0 0 1024 1024"
   id="svg1"
   sodipodi:docname="e.svg"
   inkscape:version="1.3.2 (091e20e, 2023-11-25, custom)"
   xmlns:inkscape="http://www.inkscape.org/namespaces/inkscape"
   xmlns:sodipodi="http://sodipodi.sourceforge.net/DTD/sodipodi-0.dtd"
   xmlns="http://www.w3.org/2000/svg"
   xmlns:svg="http://www.w3.org/2000/svg">
  <defs
     id="defs1" />
  <sodipodi:namedview
     id="namedview1"
     pagecolor="#ffffff"
     bordercolor="#000000"
     borderopacity="0.25"
     inkscape:showpageshadow="2"
     inkscape:pageopacity="0.0"
     inkscape:pagecheckerboard="0"
     inkscape:deskcolor="#d1d1d1"
     inkscape:zoom="0.84082031"
     inkscape:cx="511.40534"
     inkscape:cy="481.07782"
     inkscape:window-width="1920"
     inkscape:window-height="1057"
     inkscape:window-x="-8"
     inkscape:window-y="676"
     inkscape:window-maximized="1"
     inkscape:current-layer="svg1" />
  <path
     d="m 583.30777,750.60897 q 9,-18 9.5,-19.5 4.5,-13.5 13.75,-40.5 9.25,-27 13.75,-40.5 1.5,-4.5 6.25,-16.5 4.75,-12 6.25,-19 6,-25 15.5,-37 21,-23.5 103,-112.5 5.5,-8.5 3.5,-11.5 -2,-1.5 -2.75,-1.5 -0.75,0 -3.25,1.5 l -2.5,2 q -10.5,6.5 -106.5,62.5 -2.5,1.5 -19.25,12 -16.75,10.5 -25.75,14.5 -15,7.5 -16.5,23 -2,27 -4,40.5 -7.5,69 1,108 1,3 2.75,14.75 1.75,11.75 5.25,19.75 z m -260,95.5 q -13,-9.5 -49.5,-36.5 -36.5,-27 -56,-41.5 -49,-37 -73.5,-56.5 -3,-3 -7,-5 -13,-5 -14.5,-22.5 -3.5,-75 -7.25,-225.25 -3.75,-150.25 -7.25,-225.25 -1.5,-17 13.5,-21.5 43,-13.5 67.5,-22.5 20.5,-9 59,-22 38.5,-13 55.5,-20 7.5,-3.5 25,4 11.5,5 19,5 6.5,0 18.5,-4 14.5,-5.5 56.25,-21.75 41.75,-16.25 53.25,-20.25 11.5,-5 23,0 387,162.5 409.5,176 9.5,6.5 7,18.5 -4,26.5 -14.5,108.25 -10.5,81.75 -18,126.25 -11.5,67.5 -14.5,106.5 -2,17.5 -9.75,67.5 -7.75,50 -8.75,78 0,9 -9,11.5 -13.5,4 -40.75,13.25 -27.25,9.25 -41.25,13.25 -15,5 -62.25,19 -47.25,14 -72.25,23 -7,2 -58,17.5 -51,15.5 -77,25.5 -12,5 -12,-9.5 -0.5,-19 -2.5,-38.5 -2,-19.5 -6,-48 -4,-28.5 -5,-38 -1.5,-12 -5.5,-55.5 -4,-43.5 -8,-66.5 -1.5,-8.5 -5.75,-12.75 -4.25,-4.25 -14.75,-8.75 -14,-5 -28.5,-19.5 -5.5,-5.5 -19.5,-11.5 -16,-7.5 -22.25,-34.5 -6.25,-27 -11.75,-33 -25.5,-28.5 -22.5,-71.5 2.5,-26 -9.75,-68.25 -12.25,-42.25 -13.75,-55.75 -0.5,-4.5 -3.25,-7.5 -2.75,-3 -9,-6.5 -6.25,-3.5 -7.25,-4.5 -12,-9 -42,-27.5 -5,-3.5 -15.75,-10.75 -10.75,-7.25 -15.75,-10.75 -7,-4.5 -10.5,-1 -4,2.5 -2,10 1,7.5 5.25,32 4.25,24.5 5.25,38 1.5,24.5 9,72 7.5,47.5 9.5,70 1.5,22 13,90 1,7 10.25,14.75 9.25,7.75 10.25,9.25 6,6 21.75,20.5 15.75,14.5 23.25,23.5 1,1.5 4,3.5 3,2 3.5,2.5 15.5,13.5 11,29.5 -20,62 2,148.5 0,3.5 -1,7.5 z"
     id="path1-6"
     style="fill:#dedede;fill-opacity:1"
     inkscape:label="e" />
</svg>
