<?xml version="1.0" encoding="UTF-8" standalone="no"?>
<!-- Generated by IcoMoon.io -->

<svg
   version="1.1"
   width="1024"
   height="1024"
   viewBox="0 0 1024 1024"
   id="svg1"
   sodipodi:docname="eE.svg"
   inkscape:version="1.3.2 (091e20e, 2023-11-25, custom)"
   xmlns:inkscape="http://www.inkscape.org/namespaces/inkscape"
   xmlns:sodipodi="http://sodipodi.sourceforge.net/DTD/sodipodi-0.dtd"
   xmlns="http://www.w3.org/2000/svg"
   xmlns:svg="http://www.w3.org/2000/svg">
  <defs
     id="defs1" />
  <sodipodi:namedview
     id="namedview1"
     pagecolor="#ffffff"
     bordercolor="#000000"
     borderopacity="0.25"
     inkscape:showpageshadow="2"
     inkscape:pageopacity="0.0"
     inkscape:pagecheckerboard="0"
     inkscape:deskcolor="#d1d1d1"
     inkscape:zoom="0.84082031"
     inkscape:cx="511.40534"
     inkscape:cy="510.81069"
     inkscape:window-width="1920"
     inkscape:window-height="1057"
     inkscape:window-x="-8"
     inkscape:window-y="676"
     inkscape:window-maximized="1"
     inkscape:current-layer="svg1" />
  <path
     d="m 654.27485,522.8268 q -4,23 -24,58.5 -20,35.5 -23,55.5 -1.5,12.5 -17.5,20.5 0,-7.5 -0.5,-28.75 -0.5,-21.25 1,-36 1.5,-14.75 6.5,-27.75 4,-10.5 12.25,-17.5 8.25,-7 25.5,-15 17.25,-8 19.75,-9.5 z m -71,227.5 q 9,-18 9.5,-19.5 4.5,-13.5 13.75,-40.5 9.25,-27 13.75,-40.5 1.5,-4.5 6.25,-16.5 4.75,-12 6.25,-19 6,-25 15.5,-37 21,-23.5 103,-112.5 5.5,-8.5 3.5,-11.5 -2,-1.5 -2.75,-1.5 -0.75,0 -3.25,1.5 l -2.5,2 q -10.5,6.5 -106.5,62.5 -2.5,1.5 -19.25,12 -16.75,10.5 -25.75,14.5 -15,7.5 -16.5,23 -2,27 -4,40.5 -7.5,69 1,108 1,3 2.75,14.75 1.75,11.75 5.25,19.75 z m -260,95.5 q -13,-9.5 -49.5,-36.5 -36.5,-27 -56,-41.5 -49,-37 -73.5,-56.5 -3,-3 -7,-5 -13,-5 -14.5,-22.5 -3.5,-75 -7.25,-225.25 -3.75,-150.25 -7.25,-225.25 -1.5,-17 13.5,-21.5 43,-13.5 67.5,-22.5 20.5,-9 59,-22 38.5,-13 55.5,-20 7.5,-3.5 25,4 17,8.5 37.5,1 14.5,-5.5 56.25,-21.75 41.75,-16.25 53.25,-20.25 11.5,-5 23,0 387,162.5 409.5,176 9.5,6.5 7,18.5 -4,26.5 -14.5,108.25 -10.5,81.75 -18,126.25 -11.5,67.5 -14.5,106.5 -2,17.5 -9.75,67.5 -7.75,50 -8.75,78 0,9 -9,11.5 -13.5,4 -40.75,13.25 -27.25,9.25 -41.25,13.25 -15,5 -62.25,19 -47.25,14 -72.25,23 -7,2 -58,17.5 -51,15.5 -77,25.5 -12,5 -12,-9.5 -0.5,-19 -2.5,-38.5 -2,-19.5 -6,-48 -4,-28.5 -5,-38 -1.5,-12 -5.5,-55.5 -4,-43.5 -8,-66.5 -1.5,-8.5 -5.75,-12.75 -4.25,-4.25 -14.75,-8.75 -14,-5 -28.5,-19.5 -5.5,-5.5 -19.5,-11.5 -16,-7.5 -22.25,-34.5 -6.25,-27 -11.75,-33 -25.5,-28.5 -22.5,-71.5 2.5,-26 -9.75,-68.25 -12.25,-42.25 -13.75,-55.75 -0.5,-4.5 -3.25,-7.5 -2.75,-3 -9,-6.5 -6.25,-3.5 -7.25,-4.5 -12,-9 -42,-27.5 -5,-3.5 -15.75,-10.75 -10.75,-7.25 -15.75,-10.75 -7,-4.5 -10.5,-1 -4,2.5 -2,10 1,7.5 5.25,32 4.25,24.5 5.25,38 1.5,24.5 9,72 7.5,47.5 9.5,70 1.5,22 13,90 1,7 10.25,14.75 9.25,7.75 10.25,9.25 6,6 21.75,20.5 15.75,14.5 23.25,23.5 1,1.5 4,3.5 3,2 3.5,2.5 15.5,13.5 11,29.5 -20,62 2,148.5 0,3.5 -1,7.5 z m 260,-95.5 q -3.5,-8 -5.25,-19.75 -1.75,-11.75 -2.75,-14.75 -8.5,-39 -1,-108 2,-13.5 4,-40.5 1.5,-15.5 16.5,-23 9,-4 25.75,-14.5 16.75,-10.5 19.25,-12 96,-56 106.5,-62.5 l 2.5,-2 q 2.5,-1.5 3.25,-1.5 0.75,0 2.75,1.5 2,3 -3.5,11.5 -82,89 -103,112.5 -9.5,12 -15.5,37 -1.5,7 -6.25,19 -4.75,12 -6.25,16.5 -4.5,13.5 -13.75,40.5 -9.25,27 -13.75,40.5 -0.5,1.5 -9.5,19.5 z m 12.5,-108.5 v 1 l 1,-1 q 1.5,-6 5.75,-16.5 4.25,-10.5 5.75,-17.5 7.5,-30.5 20.5,-47 54,-60.5 103,-113.5 l 1.5,-1 29.5,27.5 q 0,1 -4,3 -17.5,10.5 -52.75,31.75 -35.25,21.25 -52.75,31.75 -7,3.5 -23,14 -16,10.5 -24,14 l -2.5,1 q -2,28 -4,42 -2,9.5 -4,30.5 z m -272.5,204 q 1,-4 1,-7.5 -22,-86.5 -2,-148.5 4.5,-16 -11,-29.5 -0.5,-0.5 -3.5,-2.5 -3,-2 -4,-3.5 -7.5,-9 -23.25,-23.5 -15.75,-14.5 -21.75,-20.5 -1,-1.5 -10.25,-9.25 -9.25,-7.75 -10.25,-14.75 -11.5,-68 -13,-90 -2,-22.5 -9.5,-70 -7.5,-47.5 -9,-72 -1,-13.5 -5.25,-38 -4.25,-24.5 -5.25,-32 -2,-7.5 2,-10 3.5,-3.5 10.5,1 5,3.5 15.75,10.75 10.75,7.25 15.75,10.75 30,18.5 42,27.5 1.5,1 5.5,3.5 4,2.5 6.5,4 2.5,1.5 4.75,4.5 2.25,3 2.75,6.5 1.5,13.5 13.75,55.75 12.25,42.25 9.75,68.25 -3,43 22.5,71.5 5.5,6 11.75,33 6.25,27 22.25,34.5 14,6 19.5,11.5 14.5,14.5 28.5,19.5 10.5,4.5 14.75,8.75 4.25,4.25 5.75,12.75 4,23 8,66.5 4,43.5 5.5,55.5 1,9.5 5,38 4,28.5 6,48 2,19.5 2.5,38.5 0,14.5 12,9.5 26,-10 77,-25.5 51,-15.5 58,-17.5 25,-9 72.25,-23 47.25,-14 62.25,-19 14,-4 41.25,-13.25 27.25,-9.25 40.75,-13.25 9,-2.5 9,-11.5 1,-28 8.75,-78 7.75,-50 9.75,-67.5 3,-39 14.5,-106.5 7.5,-44.5 18,-126.25 10.5,-81.75 14.5,-108.25 2.5,-12 -7,-18.5 -22.5,-13.5 -409.5,-176 -11.5,-5 -23,0 -11.5,4 -53.25,20.25 -41.75,16.25 -56.25,21.75 -20.5,7.5 -37.5,-1 -17.5,-7.5 -25,-4 -17,7 -55.5,20 -38.5,13 -59,22 -24.5,9 -67.5,22.5 -15,4.5 -13.5,21.5 3.5,75 7.25,225.25 3.75,150.25 7.25,225.25 1.5,17.5 14.5,22.5 4,2 7,5 24.5,19.5 73.5,56.5 19.5,14.5 56,41.5 36.5,27 49.5,36.5 z m -14,20.5 q -21.5,-15 -58.5,-42.5 -37,-27.5 -48,-35.5 -30,-23 -73,-56.5 -1,-1 -2.25,-1.75 -1.25,-0.75 -1.75,-1.25 l 1,1 q -27.499994,-13.5 -28.499994,-45 -4,-73.5 -8.5,-232 -4.5,-158.5 -7,-218.5 -2,-36 31.999994,-46 30.5,-9.5 65.5,-22.5 15.5,-6.5 40.5,-14 25,-7.5 73,-28 20.5,-8 46,6 7.5,3.5 18.5,-1 37,-14 108.5,-42.000004 21.5,-8 42,1 83,34.500004 239.25,101.000004 156.25,66.5 172.25,76 24.5,12.5 20.5,43 -3.5,24.5 -14.5,107.5 -11,83 -19,128 -12.5,87.5 -14.5,105.5 -2,19 -9.75,66.25 -7.75,47.25 -8.75,77.25 0,27.5 -26.5,35 -15,4 -43.25,13.25 -28.25,9.25 -37.75,12.25 -7,2 -57.25,17.5 -50.25,15.5 -76.75,24.5 -16,5.5 -62,19.25 -46,13.75 -72,23.75 -6.5,2.5 -13,3 -6.5,0.5 -14.75,-1.25 -8.25,-1.75 -13.75,-10.5 -5.5,-8.75 -6,-24.25 -0.5,-23.5 -12,-121.5 -2.5,-19 -6.25,-58.25 -3.75,-39.25 -7.25,-62.75 -2,0 -5,-2 -20.5,-8 -37,-24.5 -4,-4 -12,-7.5 -18.5,-8 -27.25,-24 -8.75,-16 -11.25,-31.5 -2.5,-15.5 -4.5,-18 -32.5,-35.5 -29,-90 1.5,-19 -8.5,-54.25 -10,-35.25 -14,-59.75 -3.5,-2.5 -9,-6 -19.5,-14 -41,-26.5 2,11 4,33.5 2,23 9.25,70.5 7.25,47.5 9.25,72 1.5,18.5 13,85 5,5 5,4.5 l -0.5,-1 q -1,-2.5 0,-1 2.5,1.5 11,11 5.5,6.5 23.25,24 17.75,17.5 20.75,21 2,1 4,3 30,23.5 19.5,57.5 -17,57 3.5,134 1,3.5 0.75,7.25 -0.25,3.75 -1,6.5 -0.75,2.75 -1.25,2.75 v 1 q -2,14.5 -14.5,19.75 -12.5,5.25 -24,-3.25 z m 274,-116 q 9,-18 9.5,-19.5 4.5,-13.5 13.75,-40.5 9.25,-27 13.75,-40.5 1.5,-4.5 6.25,-16.5 4.75,-12 6.25,-19 6,-25 15.5,-37 21,-23.5 103,-112.5 5.5,-8.5 3.5,-11.5 -2,-1.5 -2.75,-1.5 -0.75,0 -3.25,1.5 l -2.5,2 q -10.5,6.5 -106.5,62.5 -2.5,1.5 -19.25,12 -16.75,10.5 -25.75,14.5 -15,7.5 -16.5,23 -2,27 -4,40.5 -7.5,69 1,108 1,3 2.75,14.75 1.75,11.75 5.25,19.75 z m -260,95.5 q -13,-9.5 -49.5,-36.5 -36.5,-27 -56,-41.5 -49,-37 -73.5,-56.5 -3,-3 -7,-5 -13,-5 -14.5,-22.5 -3.5,-75 -7.25,-225.25 -3.75,-150.25 -7.25,-225.25 -1.5,-17 13.5,-21.5 43,-13.5 67.5,-22.5 20.5,-9 59,-22 38.5,-13 55.5,-20 7.5,-3.5 25,4 17,8.5 37.5,1 14.5,-5.5 56.25,-21.75 41.75,-16.25 53.25,-20.25 11.5,-5 23,0 387,162.5 409.5,176 9.5,6.5 7,18.5 -4,26.5 -14.5,108.25 -10.5,81.75 -18,126.25 -11.5,67.5 -14.5,106.5 -2,17.5 -9.75,67.5 -7.75,50 -8.75,78 0,9 -9,11.5 -13.5,4 -40.75,13.25 -27.25,9.25 -41.25,13.25 -15,5 -62.25,19 -47.25,14 -72.25,23 -7,2 -58,17.5 -51,15.5 -77,25.5 -12,5 -12,-9.5 -0.5,-19 -2.5,-38.5 -2,-19.5 -6,-48 -4,-28.5 -5,-38 -1.5,-12 -5.5,-55.5 -4,-43.5 -8,-66.5 -1.5,-8.5 -5.75,-12.75 -4.25,-4.25 -14.75,-8.75 -14,-5 -28.5,-19.5 -5.5,-5.5 -19.5,-11.5 -16,-7.5 -22.25,-34.5 -6.25,-27 -11.75,-33 -25.5,-28.5 -22.5,-71.5 2.5,-26 -9.75,-68.25 -12.25,-42.25 -13.75,-55.75 -0.5,-4.5 -3.25,-7.5 -2.75,-3 -9,-6.5 -6.25,-3.5 -7.25,-4.5 -12,-9 -42,-27.5 -5,-3.5 -15.75,-10.75 -10.75,-7.25 -15.75,-10.75 -7,-4.5 -10.5,-1 -4,2.5 -2,10 1,7.5 5.25,32 4.25,24.5 5.25,38 1.5,24.5 9,72 7.5,47.5 9.5,70 1.5,22 13,90 1,7 10.25,14.75 9.25,7.75 10.25,9.25 6,6 21.75,20.5 15.75,14.5 23.25,23.5 1,1.5 4,3.5 3,2 3.5,2.5 15.5,13.5 11,29.5 -20,62 2,148.5 0,3.5 -1,7.5 z"
     id="path1"
     inkscape:label="E" />
  <path
     d="m 583.30777,750.60897 q 9,-18 9.5,-19.5 4.5,-13.5 13.75,-40.5 9.25,-27 13.75,-40.5 1.5,-4.5 6.25,-16.5 4.75,-12 6.25,-19 6,-25 15.5,-37 21,-23.5 103,-112.5 5.5,-8.5 3.5,-11.5 -2,-1.5 -2.75,-1.5 -0.75,0 -3.25,1.5 l -2.5,2 q -10.5,6.5 -106.5,62.5 -2.5,1.5 -19.25,12 -16.75,10.5 -25.75,14.5 -15,7.5 -16.5,23 -2,27 -4,40.5 -7.5,69 1,108 1,3 2.75,14.75 1.75,11.75 5.25,19.75 z m -260,95.5 q -13,-9.5 -49.5,-36.5 -36.5,-27 -56,-41.5 -49,-37 -73.5,-56.5 -3,-3 -7,-5 -13,-5 -14.5,-22.5 -3.5,-75 -7.25,-225.25 -3.75,-150.25 -7.25,-225.25 -1.5,-17 13.5,-21.5 43,-13.5 67.5,-22.5 20.5,-9 59,-22 38.5,-13 55.5,-20 7.5,-3.5 25,4 11.5,5 19,5 6.5,0 18.5,-4 14.5,-5.5 56.25,-21.75 41.75,-16.25 53.25,-20.25 11.5,-5 23,0 387,162.5 409.5,176 9.5,6.5 7,18.5 -4,26.5 -14.5,108.25 -10.5,81.75 -18,126.25 -11.5,67.5 -14.5,106.5 -2,17.5 -9.75,67.5 -7.75,50 -8.75,78 0,9 -9,11.5 -13.5,4 -40.75,13.25 -27.25,9.25 -41.25,13.25 -15,5 -62.25,19 -47.25,14 -72.25,23 -7,2 -58,17.5 -51,15.5 -77,25.5 -12,5 -12,-9.5 -0.5,-19 -2.5,-38.5 -2,-19.5 -6,-48 -4,-28.5 -5,-38 -1.5,-12 -5.5,-55.5 -4,-43.5 -8,-66.5 -1.5,-8.5 -5.75,-12.75 -4.25,-4.25 -14.75,-8.75 -14,-5 -28.5,-19.5 -5.5,-5.5 -19.5,-11.5 -16,-7.5 -22.25,-34.5 -6.25,-27 -11.75,-33 -25.5,-28.5 -22.5,-71.5 2.5,-26 -9.75,-68.25 -12.25,-42.25 -13.75,-55.75 -0.5,-4.5 -3.25,-7.5 -2.75,-3 -9,-6.5 -6.25,-3.5 -7.25,-4.5 -12,-9 -42,-27.5 -5,-3.5 -15.75,-10.75 -10.75,-7.25 -15.75,-10.75 -7,-4.5 -10.5,-1 -4,2.5 -2,10 1,7.5 5.25,32 4.25,24.5 5.25,38 1.5,24.5 9,72 7.5,47.5 9.5,70 1.5,22 13,90 1,7 10.25,14.75 9.25,7.75 10.25,9.25 6,6 21.75,20.5 15.75,14.5 23.25,23.5 1,1.5 4,3.5 3,2 3.5,2.5 15.5,13.5 11,29.5 -20,62 2,148.5 0,3.5 -1,7.5 z"
     id="path1-6"
     style="fill:#d29d3e;fill-opacity:1"
     inkscape:label="e" />
</svg>
