<?xml version="1.0" encoding="UTF-8" standalone="no"?>
<!-- Generated by IcoMoon.io -->

<svg
   version="1.1"
   width="769"
   height="1024"
   viewBox="0 0 769 1024"
   id="svg1"
   sodipodi:docname="fF.svg"
   inkscape:version="1.3.2 (091e20e, 2023-11-25, custom)"
   xmlns:inkscape="http://www.inkscape.org/namespaces/inkscape"
   xmlns:sodipodi="http://sodipodi.sourceforge.net/DTD/sodipodi-0.dtd"
   xmlns="http://www.w3.org/2000/svg"
   xmlns:svg="http://www.w3.org/2000/svg">
  <defs
     id="defs1" />
  <sodipodi:namedview
     id="namedview1"
     pagecolor="#ffffff"
     bordercolor="#000000"
     borderopacity="0.25"
     inkscape:showpageshadow="2"
     inkscape:pageopacity="0.0"
     inkscape:pagecheckerboard="0"
     inkscape:deskcolor="#d1d1d1"
     inkscape:zoom="0.84082031"
     inkscape:cx="384.14867"
     inkscape:cy="510.81069"
     inkscape:window-width="1920"
     inkscape:window-height="1057"
     inkscape:window-x="-8"
     inkscape:window-y="676"
     inkscape:window-maximized="1"
     inkscape:current-layer="svg1" />
  <path
     d="m 548.73556,760.88208 q 2.5,-4 -1,-7.75 -3.5,-3.75 -7,-0.75 -4.5,2 -15.25,8 -10.75,6 -15.75,8.5 -25,12 -52.5,13.5 -27.5,1.5 -51.5,-7.25 -24,-8.75 -43.75,-24.25 -19.75,-15.5 -31.75,-39 -12,-23.5 -13,-50.5 -1,-32 9.5,-82 1,-2.5 -1.75,-4 -2.75,-1.5 -4.75,0 -24,15 -35.25,39 -11.25,24 -10.75,40.5 l 1,16.5 q -20.5,-28 -25.75,-59.5 -5.25,-31.5 3,-60 8.25,-28.5 18.25,-48.5 10,-20 23,-38.5 3,-4.5 -0.75,-8.75 -3.75,-4.25 -8.25,-1.75 -75,34 -106.5,108.25 -31.5,74.25 -1,149.75 28,71.5 99,106.5 71,35 149.5,19.5 h 1 q 3,-0.5 8.5,-1.75 5.5,-1.25 21.5,-6.75 16,-5.5 30.25,-13.25 14.25,-7.75 31.75,-22.5 17.5,-14.75 30,-33.25 z m 64.5,-439.5 q 80,170.5 79,290 -1,62 -26,118 -25,56 -66.75,96.5 -41.75,40.5 -99.5,64.5 -57.75,24 -121.25,24 h -11 q -52.5,-1.5 -99.25,-19 -46.75,-17.5 -81.25,-46 -34.5,-28.5 -60,-66.25 -25.5,-37.75 -38.249998,-79.25 -12.75,-41.5 -12.5,-86 0.25,-44.5 13.75,-85.5 13.499998,-41 43.749998,-78.75 30.25,-37.75 74.75,-64.75 6,-3 7.5,-4 39,-22.5 63,-51.25 24,-28.75 31.75,-56.25 7.75,-27.5 5.5,-55.75 -2.25,-28.25 -11.75,-50.75 -9.5,-22.5 -24,-41 -5,-6.5 -0.25,-13.75 4.75,-7.25 13.25,-5.75 20.5,3.5 40.25,9.75 19.75,6.25 46.25,20.75 26.5,14.5 48.25,34.75 21.75,20.25 42,53.5 20.25,33.25 31.25,74.75 17.5,63 12.5,139.5 -0.5,9.5 6.25,15.75 6.75,6.25 16,5.75 9.25,-0.5 15.25,-8.5 17.5,-22 20.5,-34.5 8.5,-27.5 19.5,-80 2,-6.5 4,-17.5 0.5,-6 7.5,-7.25 7,-1.25 10,4.25 z m -338,350 q -0.5,-2.5 -0.75,-7 -0.25,-4.5 1,-17 1.25,-12.5 5.25,-23.75 4,-11.25 14,-25 10,-13.75 25.5,-23.25 2,-1.5 4.75,0 2.75,1.5 1.75,4 -10.5,50 -9.5,82 1,27 13,50.5 12,23.5 31.75,39 19.75,15.5 43.75,24.25 24,8.75 51.5,7.25 27.5,-1.5 52.5,-13.5 5,-2.5 15.75,-8.5 10.75,-6 15.25,-8 3.5,-3 7,0.75 3.5,3.75 1,7.75 -12.5,18.5 -29.5,33.25 -17,14.75 -32.5,22.5 -15.5,7.75 -29.5,13 -14,5.25 -22,6.75 l -8.5,2 h -1 q -78.5,15.5 -149.5,-19.5 -71,-35 -99,-106.5 -30.5,-75.5 1,-149.75 31.5,-74.25 106.5,-108.25 4.5,-2.5 8.25,1.75 3.75,4.25 0.75,8.75 -13,18.5 -23,38.5 -10,20 -18.25,48.5 -8.25,28.5 -3,60 5.25,31.5 25.75,59.5 z m 150.5,142.5 h -3 q 10,-2 24.5,-7 -52,-1 -97,-34 -45,-33 -54.5,-87 l -0.5,1 q -1,1 -2,2.25 -1,1.25 -2.75,2.75 -1.75,1.5 -3.75,2.75 -2,1.25 -4.25,2.25 -2.25,1 -4.75,1.5 -2.5,0.5 -5.25,0.25 -2.75,-0.25 -5.75,-1.75 -3,-1.5 -6,-4.25 -3,-2.75 -6,-6.75 -54.5,-74.5 -18,-167 -6.5,6.5 -14.25,17.25 -7.75,10.75 -16.5,29.5 -8.75,18.75 -13.75,39 -5,20.25 -3.5,46.75 1.5,26.5 12,52 25.5,63.5 89.25,94.25 63.75,30.75 135.75,16.25 z m 187.5,-492.5 q -3,-5.5 -10,-4.25 -7,1.25 -7.5,7.25 -2,11 -4,17.5 -11,52.5 -19.5,80 -3,12.5 -20.5,34.5 -6,8 -15.25,8.5 -9.25,0.5 -16,-5.75 -6.75,-6.25 -6.25,-15.75 5,-76.5 -12.5,-139.5 -11,-41.5 -31.25,-74.75 -20.25,-33.25 -42,-53.5 -21.75,-20.25 -48.25,-34.75 -26.5,-14.5 -46.25,-20.75 -19.75,-6.25 -40.25,-9.75 -8.5,-1.5 -13.25,5.75 -4.75,7.25 0.25,13.75 14.5,18.5 24,41 9.5,22.5 11.75,50.75 2.25,28.25 -5.5,55.75 -7.75,27.5 -31.75,56.25 -24,28.75 -63,51.25 -1.5,1 -7.5,4 -44.5,27 -74.75,64.75 -30.25,37.75 -43.749998,78.75 -13.5,41 -13.75,85.5 -0.25,44.5 12.5,86 12.749998,41.5 38.249998,79.25 25.5,37.75 60,66.25 34.5,28.5 81.25,46 46.75,17.5 99.25,19 h 11 q 63.5,0 121.25,-24 57.75,-24 99.5,-64.5 41.75,-40.5 66.75,-96.5 25,-56 26,-118 1,-119.5 -79,-290 z m 17.5,-18.5 5,8.5 q 83,177 81,301 -1.5,89 -46.75,164.25 -45.25,75.25 -122.5,118.75 -77.25,43.5 -168.75,43.5 h -12 q -57.5,-2 -108.5,-21 -51,-19 -88.25,-50 -37.25,-31 -64.5,-72.25 -27.249998,-41.25 -40.499998,-86.25 -13.25,-45 -12.75,-93.5 0.5,-48.5 15.5,-93 15,-44.5 47.749998,-85 32.75,-40.5 80.25,-69.5 1,-1 4,-2.75 3,-1.75 4,-2.25 35,-20.5 56.25,-45.75 21.25,-25.25 27.5,-48.75 6.25,-23.5 3.75,-47.75 -2.5,-24.25 -10.5,-42.5 -8,-18.25 -19.5,-33.25 -16,-20 -1.75,-42 14.25,-22.000007 38.25,-17.500007 22.5,4 44,11 21.5,7.000007 50.75,23.000007 29.25,16 53,37.75 23.75,21.75 46,58 22.25,36.25 34.75,81.25 17,67 13.5,134 5,-7 9,-16.5 10,-36.5 19.5,-78.5 2,-11 3,-14.5 3,-22 24.25,-28 21.25,-6 35.25,9.5 z m -82,458 q 2.5,-4 -1,-7.75 -3.5,-3.75 -7,-0.75 -4.5,2 -15.25,8 -10.75,6 -15.75,8.5 -25,12 -52.5,13.5 -27.5,1.5 -51.5,-7.25 -24,-8.75 -43.75,-24.25 -19.75,-15.5 -31.75,-39 -12,-23.5 -13,-50.5 -1,-32 9.5,-82 1,-2.5 -1.75,-4 -2.75,-1.5 -4.75,0 -24,15 -35.25,39 -11.25,24 -10.75,40.5 l 1,16.5 q -20.5,-28 -25.75,-59.5 -5.25,-31.5 3,-60 8.25,-28.5 18.25,-48.5 10,-20 23,-38.5 3,-4.5 -0.75,-8.75 -3.75,-4.25 -8.25,-1.75 -75,34 -106.5,108.25 -31.5,74.25 -1,149.75 28,71.5 99,106.5 71,35 149.5,19.5 h 1 q 3,-0.5 8.5,-1.75 5.5,-1.25 21.5,-6.75 16,-5.5 30.25,-13.25 14.25,-7.75 31.75,-22.5 17.5,-14.75 30,-33.25 z m 64.5,-439.5 q 80,170.5 79,290 -1,62 -26,118 -25,56 -66.75,96.5 -41.75,40.5 -99.5,64.5 -57.75,24 -121.25,24 h -11 q -52.5,-1.5 -99.25,-19 -46.75,-17.5 -81.25,-46 -34.5,-28.5 -60,-66.25 -25.5,-37.75 -38.249998,-79.25 -12.75,-41.5 -12.5,-86 0.25,-44.5 13.75,-85.5 13.499998,-41 43.749998,-78.75 30.25,-37.75 74.75,-64.75 6,-3 7.5,-4 39,-22.5 63,-51.25 24,-28.75 31.75,-56.25 7.75,-27.5 5.5,-55.75 -2.25,-28.25 -11.75,-50.75 -9.5,-22.5 -24,-41 -5,-6.5 -0.25,-13.75 4.75,-7.25 13.25,-5.75 20.5,3.5 40.25,9.75 19.75,6.25 46.25,20.75 26.5,14.5 48.25,34.75 21.75,20.25 42,53.5 20.25,33.25 31.25,74.75 17.5,63 12.5,139.5 -0.5,9.5 6.25,15.75 6.75,6.25 16,5.75 9.25,-0.5 15.25,-8.5 17.5,-22 20.5,-34.5 8.5,-27.5 19.5,-80 2,-6.5 4,-17.5 0.5,-6 7.5,-7.25 7,-1.25 10,4.25 z"
     id="path1"
     style="display:inline"
     inkscape:label="F" />
  <path
     d="m 548.87123,760.62855 q 2.5,-4 -1,-7.75 -3.5,-3.75 -7,-0.75 -4.5,2 -15.25,8 -10.75,6 -15.75,8.5 -29,13.5 -59,13.5 -52,0 -91.75,-34.25 -39.75,-34.25 -41.75,-86.74996 -1,-32 9.5,-82 1,-2.5 -1.75,-4 -2.75,-1.5 -4.75,0 -24,15 -35.25,39 -11.25,24 -10.75,40.5 l 1,16.5 q -20.5,-28 -25.75,-59.5 -5.25,-31.5 3,-60 8.25,-28.5 18.25,-48.5 10,-20 23,-38.5 3,-4.5 -0.75,-8.75 -3.75,-4.25 -8.25,-1.75 -75,34 -106.5,108.25 -31.5,74.25 -1,149.74996 23,60.5 79,95.25 56,34.75 123.5,34.75 25.5,0 46,-4 h 1 q 3,-0.5 8.5,-1.75 5.5,-1.25 21.5,-6.75 16,-5.5 30.25,-13.25 14.25,-7.75 31.75,-22.5 17.5,-14.75 30,-33.25 z m 64.5,-439.49996 q 80,170.5 79,290 -1,62 -26,117.99996 -25,56 -66.75,96.5 -41.75,40.5 -99.5,64.5 -57.75,24 -121.25,24 h -11 q -52.5,-1.5 -99.25,-19 -46.75,-17.5 -81.25,-46 -34.5,-28.5 -60,-66.25 -25.5,-37.75 -38.249998,-79.25 -12.75,-41.49996 -12.5,-85.99996 0.25,-44.5 13.75,-85.5 13.499998,-41 43.749998,-78.75 30.25,-37.75 74.75,-64.75 6,-3 7.5,-4 39,-22.5 63,-51.25 24,-28.75 31.75,-56.25 7.75,-27.5 5.5,-55.75 -2.25,-28.25 -11.75,-50.75 -9.5,-22.5 -24,-41 -5,-6.5 -0.25,-13.75 4.75,-7.25 13.25,-5.75 20.5,3.5 40.25,9.75 19.75,6.25 46.25,20.75 26.5,14.5 48.25,34.75 21.75,20.25 42,53.5 20.25,33.25 31.25,74.75 17.5,63 12.5,139.5 -0.5,9 6,15.25 6.5,6.25 15.5,6.25 11.5,0 22,-14.75 10.5,-14.75 14.5,-28.25 8.5,-27.5 19.5,-80 2,-6.5 4,-17.5 0.5,-6 7.5,-7.25 7,-1.25 10,4.25 z"
     id="path1-2"
     style="fill:#f59a00;fill-opacity:1"
     inkscape:label="f" />
</svg>
