<?xml version="1.0" encoding="UTF-8" standalone="no"?>
<!-- Generated by IcoMoon.io -->

<svg
   version="1.1"
   width="769"
   height="1024"
   viewBox="0 0 769 1024"
   id="svg1"
   sodipodi:docname="f.svg"
   inkscape:version="1.3.2 (091e20e, 2023-11-25, custom)"
   xmlns:inkscape="http://www.inkscape.org/namespaces/inkscape"
   xmlns:sodipodi="http://sodipodi.sourceforge.net/DTD/sodipodi-0.dtd"
   xmlns="http://www.w3.org/2000/svg"
   xmlns:svg="http://www.w3.org/2000/svg">
  <defs
     id="defs1" />
  <sodipodi:namedview
     id="namedview1"
     pagecolor="#ffffff"
     bordercolor="#000000"
     borderopacity="0.25"
     inkscape:showpageshadow="2"
     inkscape:pageopacity="0.0"
     inkscape:pagecheckerboard="0"
     inkscape:deskcolor="#d1d1d1"
     inkscape:zoom="0.84082031"
     inkscape:cx="384.14867"
     inkscape:cy="510.81069"
     inkscape:window-width="1920"
     inkscape:window-height="1057"
     inkscape:window-x="-8"
     inkscape:window-y="676"
     inkscape:window-maximized="1"
     inkscape:current-layer="svg1" />
  <path
     d="m 548.87123,760.62855 q 2.5,-4 -1,-7.75 -3.5,-3.75 -7,-0.75 -4.5,2 -15.25,8 -10.75,6 -15.75,8.5 -29,13.5 -59,13.5 -52,0 -91.75,-34.25 -39.75,-34.25 -41.75,-86.74996 -1,-32 9.5,-82 1,-2.5 -1.75,-4 -2.75,-1.5 -4.75,0 -24,15 -35.25,39 -11.25,24 -10.75,40.5 l 1,16.5 q -20.5,-28 -25.75,-59.5 -5.25,-31.5 3,-60 8.25,-28.5 18.25,-48.5 10,-20 23,-38.5 3,-4.5 -0.75,-8.75 -3.75,-4.25 -8.25,-1.75 -75,34 -106.5,108.25 -31.5,74.25 -1,149.74996 23,60.5 79,95.25 56,34.75 123.5,34.75 25.5,0 46,-4 h 1 q 3,-0.5 8.5,-1.75 5.5,-1.25 21.5,-6.75 16,-5.5 30.25,-13.25 14.25,-7.75 31.75,-22.5 17.5,-14.75 30,-33.25 z m 64.5,-439.49996 q 80,170.5 79,290 -1,62 -26,117.99996 -25,56 -66.75,96.5 -41.75,40.5 -99.5,64.5 -57.75,24 -121.25,24 h -11 q -52.5,-1.5 -99.25,-19 -46.75,-17.5 -81.25,-46 -34.5,-28.5 -60,-66.25 -25.5,-37.75 -38.249998,-79.25 -12.75,-41.49996 -12.5,-85.99996 0.25,-44.5 13.75,-85.5 13.499998,-41 43.749998,-78.75 30.25,-37.75 74.75,-64.75 6,-3 7.5,-4 39,-22.5 63,-51.25 24,-28.75 31.75,-56.25 7.75,-27.5 5.5,-55.75 -2.25,-28.25 -11.75,-50.75 -9.5,-22.5 -24,-41 -5,-6.5 -0.25,-13.75 4.75,-7.25 13.25,-5.75 20.5,3.5 40.25,9.75 19.75,6.25 46.25,20.75 26.5,14.5 48.25,34.75 21.75,20.25 42,53.5 20.25,33.25 31.25,74.75 17.5,63 12.5,139.5 -0.5,9 6,15.25 6.5,6.25 15.5,6.25 11.5,0 22,-14.75 10.5,-14.75 14.5,-28.25 8.5,-27.5 19.5,-80 2,-6.5 4,-17.5 0.5,-6 7.5,-7.25 7,-1.25 10,4.25 z"
     id="path1-2"
     style="fill:#dedede;fill-opacity:1"
     inkscape:label="f" />
</svg>
