<?xml version="1.0" encoding="UTF-8" standalone="no"?>
<!-- Generated by IcoMoon.io -->

<svg
   version="1.1"
   width="969"
   height="1024"
   viewBox="0 0 969 1024"
   id="svg1"
   sodipodi:docname="iI.svg"
   inkscape:version="1.3.2 (091e20e, 2023-11-25, custom)"
   xmlns:inkscape="http://www.inkscape.org/namespaces/inkscape"
   xmlns:sodipodi="http://sodipodi.sourceforge.net/DTD/sodipodi-0.dtd"
   xmlns="http://www.w3.org/2000/svg"
   xmlns:svg="http://www.w3.org/2000/svg">
  <defs
     id="defs1" />
  <sodipodi:namedview
     id="namedview1"
     pagecolor="#ffffff"
     bordercolor="#000000"
     borderopacity="0.25"
     inkscape:showpageshadow="2"
     inkscape:pageopacity="0.0"
     inkscape:pagecheckerboard="0"
     inkscape:deskcolor="#d1d1d1"
     inkscape:zoom="0.84082031"
     inkscape:cx="485.24042"
     inkscape:cy="510.81069"
     inkscape:window-width="1920"
     inkscape:window-height="1057"
     inkscape:window-x="-8"
     inkscape:window-y="676"
     inkscape:window-maximized="1"
     inkscape:current-layer="svg1" />
  <path
     d="m 574.25,107.52769 56.5,97.5 -73,49 113.5,65.5 6.5,-87 h 111.5 l 15.5,94 74.5,61.5 -56,96.5 -79,-38 v 131 l 79,-38 56,96.5 -74.5,60.5 -15.5,95 h -111.5 l -6.5,-88 -113.5,65.5 73,50 -56.5,96.5 -89,-34 -90.5,34 -56,-96.5 72.5,-50 -112.5,-65.5 -7,88 h -112 l -15,-95 -75,-60.5 56.5,-96.5 79,38 v -131 l -79,38 -56.5,-96.5 75,-61.5 15,-94 h 112 l 7,87 112.5,-65.5 -72.5,-49 56,-97.5 90.5,35 z m -59.5,232.5 103.5,60.5 48,-24.5 1,-7.5 -150.5,-87 -5,4 z m -212,36 48,24.5 103.5,-60.5 3,-54.5 -5,-4 -150.5,87 z m -33.5,222 7,3 45,-29.5 v -120 l -45,-29.5 -7,3 z m 378.5,-26.5 46,29.5 6.5,-3 v -173 l -6.5,-3 -46,29.5 z m -136,165.5 5,4.5 150.5,-86 -1,-7.5 -48,-24.5 -103.5,60.5 z m -210,-81.5 150.5,86 5,-4.5 -3,-53 -103.5,-60.5 -48,24.5 z m -32.5,-57.5 v -173 l 7,-3 45,29.5 v 120 l -45,29.5 z m 27.5,-44 -3,3 v -90 l 3,2 z m 5,101.5 1,-7.5 48,-24.5 103.5,60.5 3,53 -5,4.5 z m 48,0 4.5,-2 73.5,42 v 5 z m 162,81.5 3,-53 103.5,-60.5 48,24.5 1,7.5 -150.5,86 z m 29.5,-36.5 v -5 l 74,-42 4,2 z m -238.5,-324.5 -1,-7.5 150.5,-87 5,4 -3,54.5 -103.5,60.5 z m 51.5,-5.5 -4.5,-2 78,-45 v 4 z m 160.5,-30.5 -3,-54.5 5,-4 150.5,87 -1,7.5 -48,24.5 z m 26.5,-12.5 v -4 l 78,45 -4,2 z m 106.5,244 v -120 l 46,-29.5 6.5,3 v 173 l -6.5,3 z m 28,-14.5 -3.5,-3 v -85 l 3.5,-2 z m -190.5,-414.5 -90.5,-35 -56,97.5 72.5,49 -112.5,65.5 -7,-87 h -112 l -15,94 -75,61.5 56.5,96.5 79,-38 v 131 l -79,-38 -56.5,96.5 75,60.5 15,95 h 112 l 7,-88 112.5,65.5 -72.5,50 56,96.5 90.5,-34 89,34 56.5,-96.5 -73,-50 113.5,-65.5 6.5,88 h 111.5 l 15.5,-95 74.5,-60.5 -56,-96.5 -79,38 v -131 l 79,38 56,-96.5 -74.5,-61.5 -15.5,-94 h -111.5 l -6.5,87 -113.5,-65.5 73,-49 -56.5,-97.5 z m 160.5,86 -35.5,24.5 36.5,20.5 3,-43 q 0.5,-11 8.75,-18.25 8.25,-7.25 19.25,-7.25 h 111.5 q 10,0 18,6.5 8,6.5 9.5,16 l 13.5,85 66.5,54 q 7.5,6 9.25,16.25 1.75,10.25 -3.25,18.75 l -55,97 q -5,9 -16,12 -11,3 -21,-1.5 l -39,-18.5 v 43 l 39,-19.5 q 10,-4.5 21,-1.25 11,3.25 16,12.75 l 55,96 q 5,8.5 3.25,19.25 -1.75,10.75 -9.25,16.75 l -66.5,54 -13.5,84 q -1.5,10 -9.5,16.75 -8,6.75 -18,6.75 h -111.5 q -11,0 -19.25,-7.25 -8.25,-7.25 -8.75,-18.25 l -3,-44 -36.5,21.5 35.5,24.5 q 8.5,6 11,16.75 2.5,10.75 -2.5,20.25 l -55.5,97 q -4.5,8.5 -14.5,12 -10,3.5 -19.5,0.5 l -79.5,-30.5 -81,30.5 q -9,3 -19,-0.5 -10,-3.5 -15,-12 l -55,-97 q -5.5,-9.5 -3,-20.25 2.5,-10.75 11,-16.75 l 36,-24.5 -37,-21.5 -3,44 q -0.5,11 -8.5,18.25 -8,7.25 -19,7.25 h -112 q -10,0 -18,-6.75 -8,-6.75 -9.5,-16.75 l -13.5,-84 -66.5,-54 q -7.5,-6 -9.25,-16.75 -1.75,-10.75 3.25,-19.25 l 56.5,-96 q 5.5,-9.5 15.5,-12.75 10,-3.25 20,1.25 l 39,19.5 v -43 l -39,18.5 q -10,4.5 -20.25,1.75 -10.25,-2.75 -15.25,-12.25 l -56.5,-97 q -5,-8.5 -3.25,-18.75 1.75,-10.25 9.25,-16.25 l 66.5,-54 13.5,-85 q 1.5,-9.5 9.5,-16 8,-6.5 18,-6.5 h 112 q 11,0 19,7.25 8,7.25 8.5,18.25 l 3,43 37,-20.5 -36,-24.5 q -8.5,-6 -11,-16.75 -2.5,-10.75 3,-20.25 l 55,-97.499996 q 5,-8.5 15,-11.75 10,-3.25 19,-0.25 l 81,30.499996 79.5,-30.499996 q 9.5,-3 19.5,0.25 10,3.25 14.5,11.75 l 55.5,97.499996 q 5,9.5 2.5,20.25 -2.5,10.75 -11,16.75 z m -71.5,-121 56.5,97.5 -73,49 113.5,65.5 6.5,-87 h 111.5 l 15.5,94 74.5,61.5 -56,96.5 -79,-38 v 131 l 79,-38 56,96.5 -74.5,60.5 -15.5,95 h -111.5 l -6.5,-88 -113.5,65.5 73,50 -56.5,96.5 -89,-34 -90.5,34 -56,-96.5 72.5,-50 -112.5,-65.5 -7,88 h -112 l -15,-95 -75,-60.5 56.5,-96.5 79,38 v -131 l -79,38 -56.5,-96.5 75,-61.5 15,-94 h 112 l 7,87 112.5,-65.5 -72.5,-49 56,-97.5 90.5,35 z m -59.5,232.5 103.5,60.5 48,-24.5 1,-7.5 -150.5,-87 -5,4 z m -212,36 48,24.5 103.5,-60.5 3,-54.5 -5,-4 -150.5,87 z m -33.5,222 7,3 45,-29.5 v -120 l -45,-29.5 -7,3 z m 378.5,-26.5 46,29.5 6.5,-3 v -173 l -6.5,-3 -46,29.5 z m -136,165.5 5,4.5 150.5,-86 -1,-7.5 -48,-24.5 -103.5,60.5 z m -210,-81.5 150.5,86 5,-4.5 -3,-53 -103.5,-60.5 -48,24.5 z"
     id="path1"
     style="display:inline"
     inkscape:label="I" />
  <path
     d="m 269.25,425.5 v 173 l 7,3 45,-29.5 V 452 l -45,-29.5 z m 33.5,223 -1,7.5 150.5,86 5,-4.5 -3,-53 -103.5,-60.5 z m 212,36 -3,53 5,4.5 150.5,-86 -1,-7.5 -48,-24.5 z m -213,-315.5 1,7.5 48,24.5 103.5,-60.5 3,-54.5 -5,-4 z m 210,-83 3,54.5 103.5,60.5 48,-24.5 1,-7.5 -150.5,-87 z m 136,166 v 120 l 46,29.5 6.5,-3 v -173 l -6.5,-3 z m -162.5,-309 89,-35 56.5,97.5 -73,49 113.5,65.5 6.5,-87 h 111.5 l 15.5,94 74.5,61.5 -56,96.5 -79,-38 v 131 l 79,-38 56,96.5 -74.5,60.5 -15.5,95 h -111.5 l -6.5,-88 -113.5,65.5 73,50 -56.5,96.5 -89,-34 -90.5,34 -56,-96.5 72.5,-50 -112.5,-65.5 -7,88 h -112 l -15,-95 -75,-60.5 56.5,-96.5 79,38 V 447 l -79,38 -56.5,-96.5 75,-61.5 15,-94 h 112 l 7,87 112.5,-65.5 -72.5,-49 56,-97.5 z"
     id="path1-1"
     style="fill:#bce4fa;fill-opacity:1"
     inkscape:label="i" />
</svg>
