<?xml version="1.0" encoding="UTF-8" standalone="no"?>
<!-- Generated by IcoMoon.io -->

<svg
   version="1.1"
   width="1024"
   height="1024"
   viewBox="0 0 1024 1024"
   id="svg1"
   sodipodi:docname="lL.svg"
   inkscape:version="1.3.2 (091e20e, 2023-11-25, custom)"
   xmlns:inkscape="http://www.inkscape.org/namespaces/inkscape"
   xmlns:sodipodi="http://sodipodi.sourceforge.net/DTD/sodipodi-0.dtd"
   xmlns="http://www.w3.org/2000/svg"
   xmlns:svg="http://www.w3.org/2000/svg">
  <defs
     id="defs1" />
  <sodipodi:namedview
     id="namedview1"
     pagecolor="#ffffff"
     bordercolor="#000000"
     borderopacity="0.25"
     inkscape:showpageshadow="2"
     inkscape:pageopacity="0.0"
     inkscape:pagecheckerboard="0"
     inkscape:deskcolor="#d1d1d1"
     inkscape:zoom="1.1103093"
     inkscape:cx="498.96006"
     inkscape:cy="370.61745"
     inkscape:window-width="1920"
     inkscape:window-height="1057"
     inkscape:window-x="-8"
     inkscape:window-y="676"
     inkscape:window-maximized="1"
     inkscape:current-layer="svg1" />
  <path
     d="m 512.25,725.75 q 88,0 150.5,-62.5 62,-62 62,-150.5 0,-88.5 -62,-150.5 -61,-62.5 -150.5,-62.5 -89.5,0 -150.5,62.5 -62,62 -62,150.5 0,88.5 62,150.5 62.5,62.5 150.5,62.5 z m 0,-439.5 q 44,0 85.75,17 41.75,17 74.25,49.5 66,66 66,159.25 0,93.25 -66,159.25 -65,66.5 -160,66.5 -94.5,0 -159.5,-66.5 -66,-66 -66,-159.25 0,-93.25 66,-159.25 66.5,-66.5 159.5,-66.5 z m 0,26 q 83.5,0 141.5,58 58.5,59 58.5,142.25 0,83.25 -58.5,141.75 -58,58 -141.5,58 -84.5,0 -142.5,-58 -58.5,-58.5 -58.5,-141.75 0,-83.25 58.5,-142.25 58,-58 142.5,-58 z m -268,-68 33.5,124 q 17,-28 39,-51 22,-22 51,-40 z m -17.5,-17 47,175 q 20,-44 52,-76 30.5,-30.5 76,-52 z m 35.5,34.5 76,20.5 q -15,12 -29.5,26.5 -20,20 -27,30 z m 517.5,314.5 111.5,-63.5 -111.5,-64.5 q 15,64 0,128 z m 137,-63.5 -157.5,-91 q 33,90 0,182 z m -120,-40 69,40 -69,39 q 6,-38.5 0,-79 z m -50,-104.5 33,-124 -123,33 q 26.5,16.5 50,40 22,22 40,51 z m 51.5,-141 -176.5,47 q 44,20 76,52 32.5,31.5 53,76 z m -36,34.5 -20.5,77 q -10.5,-15 -25.5,-30 -12.5,-12.5 -30,-26.5 z m -250,-128 -64.5,110.5 q 30,-7 64.5,-7 35,0 63.5,7 z m 0,-25.5 -91,157.5 q 41,-16 91,-16 50,0 91,16 z m 0,50 39,69 q -22,-3.5 -39,-3.5 -16.5,0 -40,3.5 z m -379,354.5 111,63.5 q -15,-64 0,-128 z m 132.5,-91 -158,91 158,91 q -33,-92 0,-182 z m -107.5,91 68.5,-40 q -4.5,40.5 0,79 z m 498.5,234.5 123,32.5 -33,-123.5 q -18,29 -40,51 -23.5,23.5 -50,40 z m 141.5,51 -47.5,-176 q -23.5,47.5 -53,76 -31,31 -76,53 z m -56.5,-111.5 20.5,76 -76,-20.5 q 20,-16 30,-26 9.5,-9.5 25.5,-29.5 z m -294,93 64.5,112 63.5,-112 q -35,8.5 -63.5,8.5 -28,0 -64.5,-8.5 z m 64.5,136.5 91,-158 q -42.5,16.5 -91,16.5 -48.5,0 -91,-16.5 z m 39,-119 -39,68.5 -40,-68.5 q 20,3 40,3 20.5,0 39,-3 z m -273.5,-141 -33.5,123.5 123.5,-32.5 q -29,-18 -51,-40 -24,-26 -39,-51 z m -4,-34 -47,176 175,-47 q -47,-24 -76,-53 -32,-32 -52,-76 z m -11.5,140.5 20.5,-76 q 8,11.5 26,29.5 12,12 29.5,26 z m 250,-37 q -88,0 -150.5,-62.5 -62,-62 -62,-150.5 0,-88.5 62,-150.5 61,-62.5 150.5,-62.5 89.5,0 150.5,62.5 62,62 62,150.5 0,88.5 -62,150.5 -62.5,62.5 -150.5,62.5 z m 0,-22.5 q 77.5,0 134,-56.5 37,-36 50,-85 13,-49 0,-98 -13,-49 -50,-86 -55.5,-55.5 -134,-55.5 -79.5,0 -135,55.5 -55,56.5 -55,135.25 0,78.75 55,133.75 56.5,56.5 135,56.5 z m -285.5,95 175,-47 q -47,-24 -76,-53 -32,-32 -52,-76 z m -22.5,-6 48,-176 q 4,-15.5 19.5,-16.75 15.5,-1.25 22.5,13.75 17.5,39 48,69.5 27.5,27.5 69.5,48 14.5,6.5 13.25,22 -1.25,15.5 -17.25,20 l -176,47 q -13,3.5 -21.75,-5 -8.75,-8.5 -5.75,-22.5 z m -96.5,-279.5 158,91 q -33,-92 0,-182 z m -11,-19.5 157.5,-91 q 14.5,-8.5 26.5,1.25 12,9.75 6.5,25.25 -31.5,83.5 0,167 5,15.5 -6.75,25.25 -11.75,9.75 -26.25,2.25 l -157.5,-91 q -12.5,-7 -12.5,-19.5 0,-12.5 12.5,-19.5 z m 415.5,-207 q -93,0 -159.5,66.5 -66,66 -66,159.25 0,93.25 66,159.25 65,66.5 159.5,66.5 95,0 160,-66.5 66,-66 66,-159.25 0,-93.25 -66,-159.25 -32.5,-32.5 -74.25,-49.5 -41.75,-17 -85.75,-17 z m 0,-22.5 q 48.5,0 94,18.75 45.5,18.75 81,54.25 73,73 73,175.5 0,102.5 -73,175.5 -35.5,35.5 -81,54.25 -45.5,18.75 -94,18.75 -48.5,0 -94,-18.75 -45.5,-18.75 -81,-54.25 -73,-73 -73,-175.5 0,-102.5 73,-175.5 35.5,-35.5 81,-54.25 45.5,-18.75 94,-18.75 z m 0,48.5 q -84.5,0 -142.5,58 -58.5,59 -58.5,142.25 0,83.25 58.5,141.75 58,58 142.5,58 83.5,0 141.5,-58 58.5,-58.5 58.5,-141.75 0,-83.25 -58.5,-142.25 -58,-58 -141.5,-58 z m 0,-23 q 92,0 158,66 43,43 58,100.25 15,57.25 0,114.25 -15,57 -58,99.5 -65.5,65.5 -158,65.5 -92,0 -157.5,-65.5 -65,-64.5 -65,-156.75 0,-92.25 65,-157.25 66,-66 157.5,-66 z m 247,314.5 157.5,-91 -157.5,-91 q 33,90 0,182 z m 11,-201.5 157,91 q 12.5,7 12.5,19.5 0,12.5 -12.5,19.5 l -157,91 q -14.5,7.5 -26.25,-2.25 -11.75,-9.75 -6.25,-25.25 30,-83.5 0,-167 -5.5,-15.5 6.25,-25.25 11.75,-9.75 26.25,-1.25 z m -368.5,-128 -175,-47 47,175 q 20,-44 52,-76 30.5,-30.5 76,-52 z m -149.5,134 -47,-176 q -3.5,-13 5,-22 8.5,-9 21.5,-6 l 176,47.5 q 16,4.5 17.25,20.5 1.25,16 -13.25,22.5 -41,18.5 -69.5,47 -29,29 -48,69.5 -6.5,15.5 -22.5,14.25 -16,-1.25 -19.5,-17.25 z m 351,-142.5 -91,-157.5 -91,157.5 q 41,-16 91,-16 50,0 91,16 z m -201.5,-11 91,-158 q 7,-12.5 19.5,-12.5 12.5,0 19.5,12.5 l 91,158 q 7.5,14 -2.5,25.75 -10,11.75 -25,5.75 -41,-14 -83,-14 -42,0 -83,14 -16,6 -26,-5.75 -10,-11.75 -1.5,-25.75 z m 349,147.5 47.5,-175 -176.5,47 q 44,20 76,52 32.5,31.5 53,76 z m -135,-150.5 176,-47.5 q 14,-3 23,6 9,9 5,22 l -47.5,176 q -4.5,16 -19.75,17.25 -15.25,1.25 -22.25,-14.25 -17.5,-37.5 -48,-69.5 -28.5,-28.5 -69.5,-47 -14.5,-7 -13.5,-22.75 1,-15.75 16.5,-20.25 z m -194.5,506.5 91,158 91,-158 q -42.5,16.5 -91,16.5 -48.5,0 -91,-16.5 z m 201.5,11.5 -91,157.5 q -7,12.5 -19.5,12.5 -12.5,0 -19.5,-12.5 l -91,-157.5 q -8.5,-14 1.25,-26 9.75,-12 25.25,-6 40,14.5 84,14.5 44.5,0 83,-14.5 15.5,-5 25.25,6.5 9.75,11.5 2.25,25.5 z m -1,-18.5 176.5,47 -47.5,-176 q -23.5,47.5 -53,76 -31,31 -76,53 z m 150.5,-135 47.5,176 q 3.5,14 -5.25,22.75 -8.75,8.75 -22.75,4.75 l -175,-47 q -16,-4.5 -17.25,-20 -1.25,-15.5 13.25,-22 42,-20.5 69.5,-48 30.5,-30.5 48,-69.5 7,-15 22.5,-13.75 15.5,1.25 19.5,16.75 z m -260,109.5 q -88,0 -150.5,-62.5 -62,-62 -62,-150.5 0,-88.5 62,-150.5 61,-62.5 150.5,-62.5 89.5,0 150.5,62.5 62,62 62,150.5 0,88.5 -62,150.5 -62.5,62.5 -150.5,62.5 z m 0,-439.5 q 44,0 85.75,17 41.75,17 74.25,49.5 66,66 66,159.25 0,93.25 -66,159.25 -65,66.5 -160,66.5 -94.5,0 -159.5,-66.5 -66,-66 -66,-159.25 0,-93.25 66,-159.25 66.5,-66.5 159.5,-66.5 z m 0,26 q -84.5,0 -142.5,58 -58.5,59 -58.5,142.25 0,83.25 58.5,141.75 58,58 142.5,58 83.5,0 141.5,-58 58.5,-58.5 58.5,-141.75 0,-83.25 -58.5,-142.25 -58,-58 -141.5,-58 z m -234.5,56 -33.5,-124 123.5,33 q -29,18 -51,40 -22,23 -39,51 z m -4,34 -47,-175 175,47 q -45.5,21.5 -76,52 -32,32 -52,76 z m 64.5,-120 -76,-20.5 19.5,77 q 7,-10 27,-30 14.5,-14.5 29.5,-26.5 z m 553,230.5 -111.5,63.5 q 15,-64 0,-128 z m -132,-91 157.5,91 -157.5,91 q 33,-92 0,-182 z m 106.5,91 -69,-40 q 6,40.5 0,79 z m -86,-268.5 -33,124 q -18,-29 -40,-51 -23.5,-23.5 -50,-40 z m -158,30 176.5,-47 -47.5,175 q -20.5,-44.5 -53,-76 -32,-32 -76,-52 z m 120,64.5 20.5,-77 -76,20.5 q 17.5,14 30,26.5 15,15 25.5,30 z m -294,-94.5 64.5,-110.5 63.5,110.5 q -28.5,-7 -63.5,-7 -34.5,0 -64.5,7 z m -26.5,21.5 91,-157.5 91,157.5 q -41,-16 -91,-16 -50,0 -91,16 z m 130,-38.5 -39,-69 -40,69 q 23.5,-3.5 40,-3.5 17,0 39,3.5 z m -307,349 -111,-63.5 111,-64.5 q -15,64 0,128 z m -136.5,-63.5 158,-91 q -33,90 0,182 z m 119,-40 -68.5,40 68.5,39 q -4.5,-38.5 0,-79 z m 553,307 -123,-32.5 q 26.5,-16.5 50,-40 22,-22 40,-51 z m -29,-157.5 47.5,176 -176.5,-47 q 45,-22 76,-53 29.5,-28.5 53,-76 z m 11.5,140.5 -20.5,-76 q -16,20 -25.5,29.5 -10,10 -30,26 z m -250,129 -64.5,-112 q 36.5,8.5 64.5,8.5 28.5,0 63.5,-8.5 z m 91,-133.5 -91,158 -91,-158 q 42.5,16.5 91,16.5 48.5,0 91,-16.5 z m -91,107.5 39,-68.5 q -18.5,3 -39,3 -20,0 -40,-3 z m -268,-86 33.5,-123.5 q 15,25 39,51 22,22 51,40 z m -17.5,18.5 47,-176 q 20,44 52,76 29,29 76,53 z m 56,-111.5 -20.5,76 76,-20.5 q -17.5,-14 -29.5,-26 -18,-18 -26,-29.5 z"
     id="path1"
     style="display:inline;opacity:1"
     inkscape:label="L" />
  <path
     d="m 265.5,603.5 -158,-91 158,-91 q -33,90 0,182 z m 136,147.5 -175,47 47,-176 q 38.5,84.5 128,129 z M 603,758 512,916 421,758 q 42.5,16.5 91,16.5 48.5,0 91,-16.5 z M 750.5,622 798,798 621.5,751 q 88,-41 129,-129 z m -477,-220 -47,-175 175,47 Q 312,315.5 273.5,402 Z M 512,286 q 44,0 85.75,17 41.75,17 74.25,49.5 66,66 66,159.25 0,93.25 -66,159.25 -65,66.5 -160,66.5 -94.5,0 -159.5,-66.5 -66,-66 -66,-159.25 0,-93.25 66,-159.25 Q 419,286 512,286 Z M 421,265.5 512,108 603,265.5 q -41,-16 -91,-16 -50,0 -91,16 z M 621.5,274 798,227 750.5,402 Q 732,360 698,326.25 664,292.5 621.5,274 Z m 137.5,147.5 157.5,91 -157.5,91 q 33,-92 0,-182 z"
     id="path1-9"
     style="display:inline;opacity:1;mix-blend-mode:normal;fill:#fff7b3;fill-opacity:1"
     inkscape:label="l" />
</svg>
