<?xml version="1.0" encoding="UTF-8" standalone="no"?>
<!-- Generated by IcoMoon.io -->

<svg
   version="1.1"
   width="1024"
   height="1024"
   viewBox="0 0 1024 1024"
   id="svg1"
   sodipodi:docname="l.svg"
   inkscape:version="1.3.2 (091e20e, 2023-11-25, custom)"
   xmlns:inkscape="http://www.inkscape.org/namespaces/inkscape"
   xmlns:sodipodi="http://sodipodi.sourceforge.net/DTD/sodipodi-0.dtd"
   xmlns="http://www.w3.org/2000/svg"
   xmlns:svg="http://www.w3.org/2000/svg">
  <defs
     id="defs1" />
  <sodipodi:namedview
     id="namedview1"
     pagecolor="#ffffff"
     bordercolor="#000000"
     borderopacity="0.25"
     inkscape:showpageshadow="2"
     inkscape:pageopacity="0.0"
     inkscape:pagecheckerboard="0"
     inkscape:deskcolor="#d1d1d1"
     inkscape:zoom="1.1103093"
     inkscape:cx="499.86071"
     inkscape:cy="370.61745"
     inkscape:window-width="1920"
     inkscape:window-height="1057"
     inkscape:window-x="-8"
     inkscape:window-y="676"
     inkscape:window-maximized="1"
     inkscape:current-layer="svg1" />
  <path
     d="m 265.5,603.5 -158,-91 158,-91 q -33,90 0,182 z m 136,147.5 -175,47 47,-176 q 38.5,84.5 128,129 z M 603,758 512,916 421,758 q 42.5,16.5 91,16.5 48.5,0 91,-16.5 z M 750.5,622 798,798 621.5,751 q 88,-41 129,-129 z m -477,-220 -47,-175 175,47 Q 312,315.5 273.5,402 Z M 512,286 q 44,0 85.75,17 41.75,17 74.25,49.5 66,66 66,159.25 0,93.25 -66,159.25 -65,66.5 -160,66.5 -94.5,0 -159.5,-66.5 -66,-66 -66,-159.25 0,-93.25 66,-159.25 Q 419,286 512,286 Z M 421,265.5 512,108 603,265.5 q -41,-16 -91,-16 -50,0 -91,16 z M 621.5,274 798,227 750.5,402 Q 732,360 698,326.25 664,292.5 621.5,274 Z m 137.5,147.5 157.5,91 -157.5,91 q 33,-92 0,-182 z"
     id="path1-9"
     style="display:inline;opacity:1;mix-blend-mode:normal;fill:#dedede;fill-opacity:1"
     inkscape:label="l" />
</svg>
