<?xml version="1.0" encoding="UTF-8" standalone="no"?>
<!-- Generated by IcoMoon.io -->

<svg
   version="1.1"
   width="685"
   height="1024"
   viewBox="0 0 685 1024"
   id="svg1"
   sodipodi:docname="w.svg"
   inkscape:version="1.3.2 (091e20e, 2023-11-25, custom)"
   xmlns:inkscape="http://www.inkscape.org/namespaces/inkscape"
   xmlns:sodipodi="http://sodipodi.sourceforge.net/DTD/sodipodi-0.dtd"
   xmlns="http://www.w3.org/2000/svg"
   xmlns:svg="http://www.w3.org/2000/svg">
  <defs
     id="defs1" />
  <sodipodi:namedview
     id="namedview1"
     pagecolor="#ffffff"
     bordercolor="#000000"
     borderopacity="0.25"
     inkscape:showpageshadow="2"
     inkscape:pageopacity="0.0"
     inkscape:pagecheckerboard="0"
     inkscape:deskcolor="#d1d1d1"
     inkscape:zoom="0.84082031"
     inkscape:cx="341.33333"
     inkscape:cy="510.81069"
     inkscape:window-width="1920"
     inkscape:window-height="1057"
     inkscape:window-x="-8"
     inkscape:window-y="676"
     inkscape:window-maximized="1"
     inkscape:current-layer="svg1" />
  <path
     d="m 310.5,327.5 q 12.5,-34 17,-68.5 h 30 q 5.5,34 18.5,69.5 26.5,65 88.75,113.25 Q 527,490 595,497.5 v 29 q -16,1.5 -28.5,5 -10,1.5 -27,8 -33.5,11 -70.25,38.25 Q 432.5,605 413.5,633 q -25,30.5 -38.5,63 -9,29.5 -9.5,32 -6,22.5 -8,37 h -30 Q 322,730 309,695 284.5,630 221.5,582 158.5,534 90,526.5 v -29 q 28.5,-3 55.5,-13 33,-10 67.5,-36.5 34.5,-26.5 59.5,-57 17,-22.5 38,-63.5 z"
     id="path1-6"
     style="fill:#b82315;fill-opacity:1"
     inkscape:label="w" />
</svg>
