<?xml version="1.0" encoding="UTF-8" standalone="no"?>
<!-- Generated by IcoMoon.io -->

<svg
   version="1.1"
   width="685"
   height="1024"
   viewBox="0 0 685 1024"
   id="svg1"
   sodipodi:docname="wW.svg"
   inkscape:version="1.3.2 (091e20e, 2023-11-25, custom)"
   xmlns:inkscape="http://www.inkscape.org/namespaces/inkscape"
   xmlns:sodipodi="http://sodipodi.sourceforge.net/DTD/sodipodi-0.dtd"
   xmlns="http://www.w3.org/2000/svg"
   xmlns:svg="http://www.w3.org/2000/svg">
  <defs
     id="defs1" />
  <sodipodi:namedview
     id="namedview1"
     pagecolor="#ffffff"
     bordercolor="#000000"
     borderopacity="0.25"
     inkscape:showpageshadow="2"
     inkscape:pageopacity="0.0"
     inkscape:pagecheckerboard="0"
     inkscape:deskcolor="#d1d1d1"
     inkscape:zoom="0.84082031"
     inkscape:cx="341.33333"
     inkscape:cy="510.81069"
     inkscape:window-width="1920"
     inkscape:window-height="1057"
     inkscape:window-x="-8"
     inkscape:window-y="676"
     inkscape:window-maximized="1"
     inkscape:current-layer="svg1" />
  <path
     d="m 310.5,327.5 q 12.5,-34 17,-68.5 h 30 q 5.5,34 18.5,69.5 12,31 38.5,63.5 25,32.5 60.5,57.5 38.5,27 64.5,35 27,10 55.5,13 v 29 q -16,1.5 -28.5,5 -10,1.5 -27,8 -10,3.5 -29.5,13.5 -13,7 -36,21.5 -10.5,7 -32.5,26.5 -17.5,16 -28,32 -25,30.5 -38.5,63 -9,29.5 -9.5,32 -6,22.5 -8,37 h -30 Q 322,730 309,695 296.5,661 271.5,630.5 247,600.5 210,574.5 172.5,548 145.5,538.5 116,529.5 90,526.5 v -29 q 28.5,-3 55.5,-13 27,-8 65.5,-35 34,-24.5 61.5,-58.5 19,-27 21.5,-31.5 3,-5 16.5,-32 z M 90,497.5 v 29 q 26,3 55.5,12 27,9.5 64.5,36 37,26 61.5,56 25,30.5 37.5,64.5 13,35 18.5,70 h 30 q 2,-14.5 8,-37 0.5,-2.5 9.5,-32 13.5,-32.5 38.5,-63 10.5,-16 28,-32 22,-19.5 32.5,-26.5 23,-14.5 36,-21.5 19.5,-10 29.5,-13.5 17,-6.5 27,-8 12.5,-3.5 28.5,-5 v -29 q -28.5,-3 -55.5,-13 -26,-8 -64.5,-35 Q 439.5,424.5 414.5,392 388,359.5 376,328.5 363,293 357.5,259 h -30 q -4.5,34.5 -17,68.5 -13.5,27 -16.5,32 -2.5,4.5 -21.5,31.5 -27.5,34 -61.5,58.5 -38.5,27 -65.5,35 -27,10 -55.5,13 z m 304,206 q -0.5,2.5 -3.5,12.75 -3,10.25 -4.5,16.75 -7,26 -9,36 -0.5,6.5 -6.75,11.5 -6.25,5 -12.75,5 h -30 q -7,0 -13,-5.5 -6,-5.5 -6.5,-12 -6.5,-37 -18,-65.5 Q 279.5,674 255,644 234.5,617 198.5,591 166,568.5 139.5,559 104,548 87,546.5 79.5,545.5 74,539.75 68.5,534 68.5,526.5 v -29 q 0,-7.5 5.5,-13.75 5.5,-6.25 13,-6.75 22.5,-2.5 52.5,-12 26.5,-9 59,-33 29,-19.5 57.5,-53 19,-27.5 20.5,-30 13.5,-27 14.5,-29.5 12,-33.5 16,-63.5 1.5,-7 7.75,-12.25 6.25,-5.25 12.75,-5.25 h 30 q 7,0 13,5.5 6,5.5 6.5,12 5.5,33 18.5,64.5 10.5,28 34.5,59.5 27,32 57.5,53 30.5,22 59.5,32 26,9 51,12 7,1 12.75,7 5.75,6 5.75,13.5 v 29 q 0,7.5 -5.5,13.25 -5.5,5.75 -13,6.75 -1,0 -27.5,4.5 -6,1 -23.5,8 -17,5 -28,12.5 L 486.5,591 q -16,11 -31,24.5 Q 439,632 430,645 q -23,28.5 -36,58.5 z m -83.5,-376 q 12.5,-34 17,-68.5 h 30 q 5.5,34 18.5,69.5 12,31 38.5,63.5 25,32.5 60.5,57.5 38.5,27 64.5,35 27,10 55.5,13 v 29 q -16,1.5 -28.5,5 -10,1.5 -27,8 -10,3.5 -29.5,13.5 -13,7 -36,21.5 -10.5,7 -32.5,26.5 -17.5,16 -28,32 -25,30.5 -38.5,63 -9,29.5 -9.5,32 -6,22.5 -8,37 h -30 Q 322,730 309,695 296.5,661 271.5,630.5 247,600.5 210,574.5 172.5,548 145.5,538.5 116,529.5 90,526.5 v -29 q 28.5,-3 55.5,-13 27,-8 65.5,-35 34,-24.5 61.5,-58.5 19,-27 21.5,-31.5 3,-5 16.5,-32 z"
     id="path1"
     style="display:inline"
     inkscape:label="W" />
  <path
     d="m 310.5,327.5 q 12.5,-34 17,-68.5 h 30 q 5.5,34 18.5,69.5 26.5,65 88.75,113.25 Q 527,490 595,497.5 v 29 q -16,1.5 -28.5,5 -10,1.5 -27,8 -33.5,11 -70.25,38.25 Q 432.5,605 413.5,633 q -25,30.5 -38.5,63 -9,29.5 -9.5,32 -6,22.5 -8,37 h -30 Q 322,730 309,695 284.5,630 221.5,582 158.5,534 90,526.5 v -29 q 28.5,-3 55.5,-13 33,-10 67.5,-36.5 34.5,-26.5 59.5,-57 17,-22.5 38,-63.5 z"
     id="path1-6"
     style="fill:#b82315;fill-opacity:1"
     inkscape:label="w" />
</svg>
