<?xml version="1.0" encoding="UTF-8" standalone="no"?>
<!-- Generated by IcoMoon.io -->

<svg
   version="1.1"
   width="32"
   height="32"
   viewBox="0 0 32 32"
   id="svg1"
   sodipodi:docname="m.svg"
   inkscape:version="1.3.2 (091e20e, 2023-11-25, custom)"
   xmlns:inkscape="http://www.inkscape.org/namespaces/inkscape"
   xmlns:sodipodi="http://sodipodi.sourceforge.net/DTD/sodipodi-0.dtd"
   xmlns="http://www.w3.org/2000/svg"
   xmlns:svg="http://www.w3.org/2000/svg">
  <defs
     id="defs1" />
  <sodipodi:namedview
     id="namedview1"
     pagecolor="#ffffff"
     bordercolor="#000000"
     borderopacity="0.25"
     inkscape:showpageshadow="2"
     inkscape:pageopacity="0.0"
     inkscape:pagecheckerboard="0"
     inkscape:deskcolor="#d1d1d1"
     inkscape:zoom="26.90625"
     inkscape:cx="15.981417"
     inkscape:cy="16"
     inkscape:window-width="1920"
     inkscape:window-height="1057"
     inkscape:window-x="-3"
     inkscape:window-y="1072"
     inkscape:window-maximized="1"
     inkscape:current-layer="svg1" />
  <path
     d="m 15.3905,25.170504 q 0.203,0.422 0,0.828 -0.266,0.422 -0.734,0.422 -0.203,0 -0.422,-0.125 -0.219,-0.125 -0.313,-0.297 -0.219,-0.406 -0.609,-0.734 l -2.438,-2.078 -0.344,-0.031 q -0.297,0.156 -0.484,0.344 -0.344,0.297 -0.516,0.641 -0.484,0.813 -2.719,2.922 -0.625,0.625 -1.109,1.047 l 0.188,0.188 0.031,0.297 h -1.5 q -0.438,0 -0.75,-0.297 -0.312,-0.297 -0.313,-0.734 v -1.5 l 0.297,0.031 0.188,0.156 q 0.203,-0.203 0.586,-0.602 0.383,-0.399 0.461,-0.477 2.156,-2.266 2.953,-2.719 0.281,-0.141 0.641,-0.547 0.063,-0.063 0.141,-0.188 0.078,-0.125 0.125,-0.219 l 0.047,-0.078 -0.031,-0.344 -2.047,-2.406 q -0.266,-0.313 -0.766,-0.641 -0.063,-0.031 -0.156,-0.125 -0.297,-0.297 -0.242,-0.703 0.055,-0.406 0.43,-0.609 0.406,-0.266 0.828,0 0.375,0.234 0.422,0.641 0.047,0.313 0.219,0.438 l 2.219,1.922 q 2.391,-2.609 6.531,-7.219 4.14,-4.6100003 7.031,-7.7500003 0.938,-0.344 2.297,-0.648 1.359,-0.304 2.195,-0.438 0.836,-0.134 0.914,-0.133 l -0.156,0.875 q -0.172,0.875 -0.484,2.203 -0.312,1.328 -0.641,2.266 -2.828,2.5780003 -7.422,6.6880003 -4.594,4.11 -7.578,6.844 l 1.922,2.25 q 0.188,0.188 0.438,0.188 0.422,0.047 0.672,0.453 z"
     id="path1" />
</svg>
