<?xml version="1.0" encoding="UTF-8" standalone="no"?>
<!-- Generated by IcoMoon.io -->

<svg
   version="1.1"
   width="634"
   height="1024"
   viewBox="0 0 634 1024"
   id="svg1"
   sodipodi:docname="oO.svg"
   inkscape:version="1.3.2 (091e20e, 2023-11-25, custom)"
   xmlns:inkscape="http://www.inkscape.org/namespaces/inkscape"
   xmlns:sodipodi="http://sodipodi.sourceforge.net/DTD/sodipodi-0.dtd"
   xmlns="http://www.w3.org/2000/svg"
   xmlns:svg="http://www.w3.org/2000/svg">
  <defs
     id="defs1" />
  <sodipodi:namedview
     id="namedview1"
     pagecolor="#ffffff"
     bordercolor="#000000"
     borderopacity="0.25"
     inkscape:showpageshadow="2"
     inkscape:pageopacity="0.0"
     inkscape:pagecheckerboard="0"
     inkscape:deskcolor="#d1d1d1"
     inkscape:zoom="0.84082031"
     inkscape:cx="316.35772"
     inkscape:cy="510.81069"
     inkscape:window-width="1920"
     inkscape:window-height="1057"
     inkscape:window-x="-8"
     inkscape:window-y="676"
     inkscape:window-maximized="1"
     inkscape:current-layer="svg1" />
  <path
     d="m 236.33103,898.31459 77,-301 h -192.5 q -18.5,0 -27.249994,-16 -8.75,-16 1.25,-32 l 275.499994,-435.5 q 6.5,-11 18.75,-5.5 12.25,5.5 9.25,18 l -78,301 h 192.5 q 18.5,0 27.5,16 9,16 -1,32 l -276.5,435.5 q -6.5,11 -18,5.5 -11.5,-5.5 -8.5,-18 z m 77,-301 -77,301 q -3,12.5 8.5,18 11.5,5.5 18,-5.5 l 276.5,-435.5 q 10,-16 1,-32 -9,-16 -27.5,-16 h -192.5 l 78,-301 q 3,-12.5 -9.25,-18 -12.25,-5.5 -18.75,5.5 l -275.499994,435.5 q -10,16 -1.25,32 8.749994,16 27.249994,16 z m -104.5,294 67.5,-265.5 h -155.5 q -22.499994,0 -39.249994,-14.75 -16.75,-14.75 -19.75,-35 -3,-20.25 8.5,-41.25 L 346.83103,99.814584 q 11.5,-19 33.5,-21.75 22,-2.75 37,12.75 15,15.500006 7.5,42.500006 l -67.5,265.5 h 155.5 q 34.5,0 51.75,30.5 17.25,30.5 -1.75,60.5 l -275.5,435 q -12,19 -34,21.25 -22,2.25 -36.75,-13.25 -14.75,-15.5 -7.75,-41.5 z m 27.5,7 77,-301 h -192.5 q -18.5,0 -27.249994,-16 -8.75,-16 1.25,-32 l 275.499994,-435.5 q 6.5,-11 18.75,-5.5 12.25,5.5 9.25,18 l -78,301 h 192.5 q 18.5,0 27.5,16 9,16 -1,32 l -276.5,435.5 q -6.5,11 -18,5.5 -11.5,-5.5 -8.5,-18 z"
     id="path1"
     inkscape:label="O" />
  <path
     d="m 236.28509,898 77,-301 h -192.5 q -18.5,0 -27.250005,-16 -8.75,-16 1.25,-32 L 370.28509,113.5 q 4,-7 12.5,-7 7.5,0 12.5,5.75 5,5.75 3,13.75 l -78,301 h 192.5 q 18.5,0 27.5,16 9,16 -1,32 l -276.5,435.5 q -4,7 -12,7 -6.5,0 -11.5,-5.75 -5,-5.75 -3,-13.75 z"
     id="path1-9"
     style="fill:#cd1719;fill-opacity:1"
     inkscape:label="o" />
</svg>
