<?xml version="1.0" encoding="UTF-8" standalone="no"?>
<!-- Generated by IcoMoon.io -->

<svg
   version="1.1"
   width="981"
   height="1024"
   viewBox="0 0 981 1024"
   id="svg1"
   sodipodi:docname="p.svg"
   inkscape:version="1.3.2 (091e20e, 2023-11-25, custom)"
   xmlns:inkscape="http://www.inkscape.org/namespaces/inkscape"
   xmlns:sodipodi="http://sodipodi.sourceforge.net/DTD/sodipodi-0.dtd"
   xmlns="http://www.w3.org/2000/svg"
   xmlns:svg="http://www.w3.org/2000/svg">
  <defs
     id="defs1" />
  <sodipodi:namedview
     id="namedview1"
     pagecolor="#ffffff"
     bordercolor="#000000"
     borderopacity="0.25"
     inkscape:showpageshadow="2"
     inkscape:pageopacity="0.0"
     inkscape:pagecheckerboard="0"
     inkscape:deskcolor="#d1d1d1"
     inkscape:zoom="0.84082031"
     inkscape:cx="491.18699"
     inkscape:cy="510.81069"
     inkscape:window-width="1920"
     inkscape:window-height="1057"
     inkscape:window-x="-8"
     inkscape:window-y="676"
     inkscape:window-maximized="1"
     inkscape:current-layer="svg1" />
  <path
     d="m 546.71795,543.5 -139.5,-207.5 -93,92 207.5,140.5 q 4.5,3 9.5,3 10.5,0 16,-9.25 5.5,-9.25 -0.5,-18.75 z m -357.5,-361.5 155.5,129 103.5,-103 q 9.5,-9.5 21.5,-9.5 13.5,0 21.5,9.5 9.5,8.5 9.5,21 0,12.5 -9.5,22 l -20.5,20.5 418,617.5 q 5,8.5 0.25,16.5 -4.75,8 -12.75,8 -3.5,0 -8,-3 l -617.5,-418 -21.5,20.5 q -7.5,9 -21.5,9 -12.5,0 -21.5,-9 -9.5,-9.5 -9.5,-22 0,-12.5 9.5,-21 l 103.5,-103.5 -129,-156.5 q -8,4 -19.5,4 -21.5,0 -37,-15.5 -14.500001,-14.5 -14.500001,-35.75 0,-21.25 14.500001,-36.75 15.5,-15.5 37,-15.5 21,0 36.5,15.5 11,11.5 14,27 3,15.5 -2.5,29 z"
     id="path1-7"
     style="fill:#dedede;fill-opacity:1"
     inkscape:label="p" />
</svg>
