<?xml version="1.0" encoding="UTF-8" standalone="no"?>
<!-- Generated by IcoMoon.io -->

<svg
   version="1.1"
   width="981"
   height="1024"
   viewBox="0 0 981 1024"
   id="svg1"
   sodipodi:docname="pP.svg"
   inkscape:version="1.3.2 (091e20e, 2023-11-25, custom)"
   xmlns:inkscape="http://www.inkscape.org/namespaces/inkscape"
   xmlns:sodipodi="http://sodipodi.sourceforge.net/DTD/sodipodi-0.dtd"
   xmlns="http://www.w3.org/2000/svg"
   xmlns:svg="http://www.w3.org/2000/svg">
  <defs
     id="defs1" />
  <sodipodi:namedview
     id="namedview1"
     pagecolor="#ffffff"
     bordercolor="#000000"
     borderopacity="0.25"
     inkscape:showpageshadow="2"
     inkscape:pageopacity="0.0"
     inkscape:pagecheckerboard="0"
     inkscape:deskcolor="#d1d1d1"
     inkscape:zoom="0.84082031"
     inkscape:cx="491.18699"
     inkscape:cy="510.81069"
     inkscape:window-width="1920"
     inkscape:window-height="1057"
     inkscape:window-x="-8"
     inkscape:window-y="676"
     inkscape:window-maximized="1"
     inkscape:current-layer="svg1" />
  <path
     d="m 546.6375,542.67857 -139.5,-207.5 -93,92 207.5,140.5 q 13,7.5 23.5,-2 10.5,-9.5 1.5,-23 z m -202,-232.5 103.5,-103 q 9.5,-9.5 22,-9.5 12.5,0 21,9.5 9.5,8.5 9.5,21 0,12.5 -9.5,22 l -20.5,20.5 418,617.5 q 6.5,11 -2,19.75 -8.5,8.75 -18.5,1.75 l -617.5,-418 -21.5,20.5 q -8.5,9.5 -21,9.5 -12.5,0 -22,-9.5 -9.5,-9.5 -9.5,-22 0,-12.5 9.5,-21 l 103.5,-103.5 -129,-156.5 q -13.5,6 -29.25,3 -15.75,-3 -27.25,-14.5 -14.5,-14.5 -14.5,-35.75 0,-21.25 14.5,-36.75 15.5,-15.5 36.75,-15.5 21.25,0 36.75,15.5 11,11.5 14,27 3,15.5 -2.5,29 z m 62.5,25 139.5,207.5 q 9,13.5 -1.5,23 -10.5,9.5 -23.5,2 l -207.5,-140.5 z m 118,222 -122,-181 -48,47 181,121.5 z m -180.5,-247 -155.5,-129 q 5.5,-13.5 2.5,-29 -3,-15.5 -14,-27 -15.5,-15.5 -36.75,-15.5 -21.25,0 -36.75,15.5 -14.5,15.5 -14.5,36.75 0,21.25 14.5,35.75 11.5,11.5 27.25,14.5 15.75,3 29.25,-3 l 129,156.5 -103.5,103.5 q -9.5,8.5 -9.5,21 0,12.5 9.5,22 9.5,9.5 22,9.5 12.5,0 21,-9.5 l 21.5,-20.5 617.5,418 q 10,7 18.5,-1.75 8.5,-8.75 2,-19.75 l -418,-617.5 20.5,-20.5 q 9.5,-9.5 9.5,-22 0,-12.5 -9.5,-21 -8.5,-9.5 -21,-9.5 -12.5,0 -22,9.5 z m -127,-139 125,103.5 87,-86 q 16,-17 40,-17 24,0 40,17 17,16 17,39.75 0,23.75 -17,39.75 l -5,6.5 405.5,599 q 8.5,12.5 7,27.75 -1.5,15.25 -10.75,25 -9.25,9.75 -23.25,12.75 -14,3 -30.5,-8 l -599,-405.5 -6,5 q -16,17 -39.5,17 -23.5,0 -40.5,-17 -17,-17 -17,-40.5 0,-23.5 17,-39.5 l 86,-87 -102.5,-125 q -38,5 -65.5,-22.5 -22,-22 -22,-54.25 0,-32.25 22,-55.25 23,-22.499998 55.25,-22.499998 32.25,0 55.25,22.499998 26.5,26.5 21.5,64.5 z"
     id="path1"
     inkscape:label="P" />
  <path
     d="m 546.71795,543.5 -139.5,-207.5 -93,92 207.5,140.5 q 4.5,3 9.5,3 10.5,0 16,-9.25 5.5,-9.25 -0.5,-18.75 z m -357.5,-361.5 155.5,129 103.5,-103 q 9.5,-9.5 21.5,-9.5 13.5,0 21.5,9.5 9.5,8.5 9.5,21 0,12.5 -9.5,22 l -20.5,20.5 418,617.5 q 5,8.5 0.25,16.5 -4.75,8 -12.75,8 -3.5,0 -8,-3 l -617.5,-418 -21.5,20.5 q -7.5,9 -21.5,9 -12.5,0 -21.5,-9 -9.5,-9.5 -9.5,-22 0,-12.5 9.5,-21 l 103.5,-103.5 -129,-156.5 q -8,4 -19.5,4 -21.5,0 -37,-15.5 -14.500002,-14.5 -14.500002,-35.75 0,-21.25 14.500002,-36.75 15.5,-15.5 37,-15.5 21,0 36.5,15.5 11,11.5 14,27 3,15.5 -2.5,29 z"
     id="path1-7"
     style="fill:#dedede;fill-opacity:1"
     inkscape:label="p" />
</svg>
