<?xml version="1.0" encoding="UTF-8" standalone="no"?>
<!-- Generated by IcoMoon.io -->

<svg
   version="1.1"
   width="1031"
   height="1024"
   viewBox="0 0 1031 1024"
   id="svg1"
   sodipodi:docname="tT.svg"
   inkscape:version="1.3.2 (091e20e, 2023-11-25, custom)"
   xmlns:inkscape="http://www.inkscape.org/namespaces/inkscape"
   xmlns:sodipodi="http://sodipodi.sourceforge.net/DTD/sodipodi-0.dtd"
   xmlns="http://www.w3.org/2000/svg"
   xmlns:svg="http://www.w3.org/2000/svg">
  <defs
     id="defs1" />
  <sodipodi:namedview
     id="namedview1"
     pagecolor="#ffffff"
     bordercolor="#000000"
     borderopacity="0.25"
     inkscape:showpageshadow="2"
     inkscape:pageopacity="0.0"
     inkscape:pagecheckerboard="0"
     inkscape:deskcolor="#d1d1d1"
     inkscape:zoom="0.84082031"
     inkscape:cx="516.1626"
     inkscape:cy="510.81069"
     inkscape:window-width="1920"
     inkscape:window-height="1057"
     inkscape:window-x="-8"
     inkscape:window-y="676"
     inkscape:window-maximized="1"
     inkscape:current-layer="svg1" />
  <path
     d="m 252,369.5 q -35,39.5 -35,96.5 0,55.5 35,95 33,39 82,39 48.5,0 83,-39 33.5,-39.5 33.5,-95 0,-57 -33.5,-96.5 -35.5,-38.5 -83,-38.5 -48,0 -82,38.5 z M 473,639 q -22.5,30.5 -22.5,56.5 0,18 11.5,29.5 16.5,19.5 55,19.5 57.5,0 57.5,-43 0,-30 -19.5,-59.5 -19,-31.5 -40,-31.5 -19.5,0 -42,28.5 z M 603,369.5 q -33.5,41.5 -33.5,96.5 0,55.5 33.5,95 33,39 82,39 50,0 83,-39 34,-40 34,-95 0,-56.5 -34,-96.5 -34,-38.5 -83,-38.5 -48,0 -82,38.5 z m -273.5,462 V 770 Q 215.5,737 152.5,664.5 89,592 89,496.5 89,478 94,450.5 116,304 227.5,208 347,107.5 515,107.5 q 168,0 287,101.5 112,96 135,241.5 4,22 4,46 0,98 -64.5,170 Q 808.5,742 685,774 v 57.5 q 0,31.5 -21.5,53 -22,22 -54,25 -29.5,3 -46.5,-10.5 -25,17.5 -53,17.5 -31,0 -55.5,-18.5 -18.5,14.5 -50,11.5 -33,-3 -53.5,-23.5 -21.5,-23 -21.5,-54.5 z M 252,369.5 q 34,-38.5 82,-38.5 47.5,0 83,38.5 33.5,39.5 33.5,96.5 0,55.5 -33.5,95 -34.5,39 -83,39 -49,0 -82,-39 -35,-39.5 -35,-95 0,-57 35,-96.5 z m 19.5,17.5 q -29,33.5 -29,79 0,45.5 29,77.5 26.5,31 62.5,31 37,0 63.5,-31 Q 425,513 425,466 q 0,-47 -27.5,-79 -26,-30.5 -63.5,-30.5 -36.5,0 -62.5,30.5 z M 473,639 q 22.5,-28.5 42,-28.5 21,0 40,31.5 19.5,29.5 19.5,59.5 0,43 -57.5,43 -38.5,0 -55,-19.5 -11.5,-11.5 -11.5,-29.5 0,-26 22.5,-56.5 z m 20.5,15.5 q -16.5,22 -16.5,41 0,8.5 3.5,12 11.5,11.5 36.5,11.5 11,0 17.75,-1.5 6.75,-1.5 9.25,-4.5 2.5,-3 3.25,-5.25 Q 548,705.5 548,701.5 548,681 533.5,655.5 523,637 515,637 q -8,0 -21.5,17.5 z M 603,369.5 q 34,-38.5 82,-38.5 49,0 83,38.5 34,40 34,96.5 0,55 -34,95 -33,39 -83,39 -49,0 -82,-39 -33.5,-39.5 -33.5,-95 0,-55 33.5,-96.5 z m 19.5,17.5 q -26.5,31 -26.5,79 0,46.5 26.5,79 26.5,29.5 62.5,29.5 38.5,0 63.5,-29.5 27.5,-32 27.5,-79 0,-48.5 -27.5,-79 -25,-30.5 -63.5,-30.5 -36.5,0 -62.5,30.5 z m -293,383 v 61.5 q 0,31.5 21.5,54.5 20.5,20.5 53.5,23.5 31.5,3 50,-11.5 24.5,18.5 55.5,18.5 28,0 53,-17.5 17,13.5 46.5,10.5 32,-3 54,-25 Q 685,863 685,831.5 V 774 q 123.5,-32 191.5,-107.5 64.5,-72 64.5,-170 0,-24 -4,-46 Q 914,305 802,209 683,107.5 515,107.5 347,107.5 227.5,208 116,304 94,450.5 q -5,27.5 -5,46 0,95.5 63.5,168 63,72.5 177,105.5 z M 304,831.5 v -43 Q 195,752.5 133,682 63.5,602 63.5,496.5 q 0,-22.5 5,-50 Q 92,290.5 211,188.5 336,82 515,82 q 178,0 303,107.5 119.5,101 144.5,257 5,26 5,50 0,107 -71.5,187.5 -69,76.5 -185.5,109.5 v 38 q 0,43 -28.5,71.5 -29,29 -69.5,32 -29,3 -49.5,-6 -23,13 -53,13 -28.5,0 -56.5,-14.5 -16.5,10 -50,7.5 Q 362,932 333,903 304,874 304,831.5 Z"
     id="path1"
     inkscape:label="T" />
  <path
     d="m 515.5,610.5 q -22,0 -43.25,30.75 Q 451,672 451,695.5 q 0,18 11.5,29.5 16.5,19.5 55,19.5 57.5,0 57.5,-43 Q 575,676 556.75,643.25 538.5,610.5 515.5,610.5 Z M 334.5,331 q -51.5,0 -84.25,41 -32.75,41 -32.75,94 0,52.5 32.75,93.25 Q 283,600 334.5,600 q 52,0 84.25,-40.25 Q 451,519.5 451,466 451,412.5 418.75,371.75 386.5,331 334.5,331 Z m 351,0 q -51,0 -83.25,41 -32.25,41 -32.25,94 0,53 32,93.5 32,40.5 83.5,40.5 52,0 84.5,-40.25 Q 802.5,519.5 802.5,466 802.5,412.5 770,371.75 737.5,331 685.5,331 Z M 330,831.5 V 770 Q 279.5,755.5 237.25,731.5 195,707.5 161.25,674 127.5,640.5 108.5,595 89.499999,549.5 89.499999,496.5 q 0,-18.5 5,-46 Q 110,346.5 170.5,267.75 231,189 320.5,148.25 410,107.5 515.5,107.5 q 168,0 287,101.5 63,54 101,130.5 38,76.5 38,157 0,55.5 -20.5,102.25 -20.5,46.75 -56.5,80.5 Q 828.5,713 783.75,736.5 739,760 685.5,774 v 57.5 q 0,35 -25.25,57 -25.25,22 -60.75,22 -23,0 -36,-11.5 -25,17.5 -53,17.5 -31,0 -55.5,-18.5 -16,12.5 -39,12.5 -36.5,0 -61.25,-21.75 Q 330,867 330,831.5 Z"
     id="path1-6"
     style="fill:#d679a2;fill-opacity:1"
     inkscape:label="t" />
</svg>
