<?xml version="1.0" encoding="UTF-8" standalone="no"?>
<!-- Generated by IcoMoon.io -->

<svg
   version="1.1"
   width="1031"
   height="1024"
   viewBox="0 0 1031 1024"
   id="svg1"
   sodipodi:docname="t.svg"
   inkscape:version="1.3.2 (091e20e, 2023-11-25, custom)"
   xmlns:inkscape="http://www.inkscape.org/namespaces/inkscape"
   xmlns:sodipodi="http://sodipodi.sourceforge.net/DTD/sodipodi-0.dtd"
   xmlns="http://www.w3.org/2000/svg"
   xmlns:svg="http://www.w3.org/2000/svg">
  <defs
     id="defs1" />
  <sodipodi:namedview
     id="namedview1"
     pagecolor="#ffffff"
     bordercolor="#000000"
     borderopacity="0.25"
     inkscape:showpageshadow="2"
     inkscape:pageopacity="0.0"
     inkscape:pagecheckerboard="0"
     inkscape:deskcolor="#d1d1d1"
     inkscape:zoom="0.84082031"
     inkscape:cx="516.1626"
     inkscape:cy="510.81069"
     inkscape:window-width="1920"
     inkscape:window-height="1057"
     inkscape:window-x="-8"
     inkscape:window-y="676"
     inkscape:window-maximized="1"
     inkscape:current-layer="svg1" />
  <path
     d="m 515.5,610.5 q -22,0 -43.25,30.75 Q 451,672 451,695.5 q 0,18 11.5,29.5 16.5,19.5 55,19.5 57.5,0 57.5,-43 Q 575,676 556.75,643.25 538.5,610.5 515.5,610.5 Z M 334.5,331 q -51.5,0 -84.25,41 -32.75,41 -32.75,94 0,52.5 32.75,93.25 Q 283,600 334.5,600 q 52,0 84.25,-40.25 Q 451,519.5 451,466 451,412.5 418.75,371.75 386.5,331 334.5,331 Z m 351,0 q -51,0 -83.25,41 -32.25,41 -32.25,94 0,53 32,93.5 32,40.5 83.5,40.5 52,0 84.5,-40.25 Q 802.5,519.5 802.5,466 802.5,412.5 770,371.75 737.5,331 685.5,331 Z M 330,831.5 V 770 Q 279.5,755.5 237.25,731.5 195,707.5 161.25,674 127.5,640.5 108.5,595 89.499999,549.5 89.499999,496.5 q 0,-18.5 5,-46 Q 110,346.5 170.5,267.75 231,189 320.5,148.25 410,107.5 515.5,107.5 q 168,0 287,101.5 63,54 101,130.5 38,76.5 38,157 0,55.5 -20.5,102.25 -20.5,46.75 -56.5,80.5 Q 828.5,713 783.75,736.5 739,760 685.5,774 v 57.5 q 0,35 -25.25,57 -25.25,22 -60.75,22 -23,0 -36,-11.5 -25,17.5 -53,17.5 -31,0 -55.5,-18.5 -16,12.5 -39,12.5 -36.5,0 -61.25,-21.75 Q 330,867 330,831.5 Z"
     id="path1-6"
     style="fill:#dedede;fill-opacity:1"
     inkscape:label="t" />
</svg>
