<?xml version="1.0" encoding="UTF-8" standalone="no"?>
<!-- Generated by IcoMoon.io -->

<svg
   version="1.1"
   width="985"
   height="1024"
   viewBox="0 0 985 1024"
   id="svg1"
   sodipodi:docname="r.svg"
   inkscape:version="1.3.2 (091e20e, 2023-11-25, custom)"
   xmlns:inkscape="http://www.inkscape.org/namespaces/inkscape"
   xmlns:sodipodi="http://sodipodi.sourceforge.net/DTD/sodipodi-0.dtd"
   xmlns="http://www.w3.org/2000/svg"
   xmlns:svg="http://www.w3.org/2000/svg">
  <defs
     id="defs1" />
  <sodipodi:namedview
     id="namedview1"
     pagecolor="#ffffff"
     bordercolor="#000000"
     borderopacity="0.25"
     inkscape:showpageshadow="2"
     inkscape:pageopacity="0.0"
     inkscape:pagecheckerboard="0"
     inkscape:deskcolor="#d1d1d1"
     inkscape:zoom="0.84082031"
     inkscape:cx="492.37631"
     inkscape:cy="512"
     inkscape:window-width="1920"
     inkscape:window-height="1057"
     inkscape:window-x="-3"
     inkscape:window-y="1072"
     inkscape:window-maximized="1"
     inkscape:current-layer="svg1" />
  <g
     id="icomoon-ignore" />
  <path
     d="m 887.34822,114.08036 q 10.5,10.5 7,26.5 -3,10.5 -9.25,32.75 -6.25,22.25 -9.25,33.25 l -11,44 q -3.5,13.5 -16.5,17 -13,5.5 -24.5,-6 -9,-9 -1,-39 l -82,82 q 88.5,98 105.5,210 6,39.5 3,83 -4.5,81.5 -47,158.5 -1.5,3.5 -5.25,10.25 -3.75,6.75 -5.25,10.25 -11,26 -13,40 -1.5,4.5 0,12.5 0,3 5,3 15.5,0 23.5,5 12,6.5 17.25,19 5.25,12.5 2.25,26 -3,14 -13.5,23.25 -10.5,9.25 -24.5,9.75 h -9 q -33.5,0 -55.75,-19.25 -22.25,-19.25 -25.25,-52.75 -3.5,-32.5 8,-70.5 l -185.5,-185.5 v -1 q -4,-3 -4,-8 0,-5 4,-9 l 25,-25 q 3,-3 8,-3 5,0 9,3 l 168,168 v -1 q 36.5,-62.5 38,-135 0,-57 -22.75,-113.5 -22.75,-56.5 -61.25,-101.5 l -77.5,77.5 q -53.5,53.5 -81,80 l -30,31 -2,2 -69.5,68.5 v 45 q 0,12 -8,21.5 -76.5,76.5 -98.5,97.5 -7,7 -13.5,8 -9.5,2.5 -18,-3 -8.5,-5.5 -10.5,-15.5 -2,-14 -8,-38 l -36,-8 q -16.5,-4 -20.5,-17.5 -4.5,-13 7,-24.5 l 98.5,-98.5 q 6.5,-8 19.5,-8 3.5,0 10.75,-0.5 7.25,-0.5 10.75,-0.5 h 25.5 l 100.5,-100.5 q 12.5,-13.5 36.5,-37.5 l 122,-121 q -98,-80 -214,-83 -4,0.5 -11,0.75 -7,0.25 -12.75,0.75 -5.75,0.5 -10.75,1.5 -48,5.5 -101.5,35 l 169,169 q 4,4 4,9 0,5 -4,8 l -23.5,25 -1,1 q -3.5,3.5 -6.25,4 -2.75,0.5 -10.25,-5 h -1 q -2,-2 -2,-3.5 -9,-7 -45,-43 l -140.5,-140 q -34,9 -65.5,9 -32,-1.5 -53.5,-21.5 -21.500007,-20 -23.500007,-51 -2,-20.5 3,-32 4.5,-12 15.000007,-19.25 10.5,-7.25 24,-7.25 17,0 29,12 12,12 12,29 v 7 q 0.5,0.5 1,1.5 0,0.5 0.25,0.75 0.25,0.25 0.75,0.25 9.5,1.5 25.5,-3.5 17,-4.5 49.5,-21.5 92,-48 183,-48 73.5,0 141.75,28.5 68.25,28.5 123.75,80 39,-37 83,-83 -19.5,6.5 -24.5,6.5 -8,0 -13.5,-5.5 -11.5,-10 -8,-23.5 3,-13.5 19,-18.5 8.5,-2 26,-6.5 17.5,-4.5 26.5,-6.5 l 53,-14.5 q 17,-5.5 27,3 z"
     id="path1" />
</svg>
