<?xml version="1.0" encoding="UTF-8" standalone="no"?>
<!-- Generated by IcoMoon.io -->

<svg
   version="1.1"
   width="31"
   height="32"
   viewBox="0 0 31 32"
   id="svg1"
   sodipodi:docname="c.svg"
   inkscape:version="1.3.2 (091e20e, 2023-11-25, custom)"
   xmlns:inkscape="http://www.inkscape.org/namespaces/inkscape"
   xmlns:sodipodi="http://sodipodi.sourceforge.net/DTD/sodipodi-0.dtd"
   xmlns="http://www.w3.org/2000/svg"
   xmlns:svg="http://www.w3.org/2000/svg">
  <defs
     id="defs1" />
  <sodipodi:namedview
     id="namedview1"
     pagecolor="#ffffff"
     bordercolor="#000000"
     borderopacity="0.25"
     inkscape:showpageshadow="2"
     inkscape:pageopacity="0.0"
     inkscape:pagecheckerboard="0"
     inkscape:deskcolor="#d1d1d1"
     inkscape:zoom="26.90625"
     inkscape:cx="15.498258"
     inkscape:cy="16"
     inkscape:window-width="1920"
     inkscape:window-height="1057"
     inkscape:window-x="-3"
     inkscape:window-y="1072"
     inkscape:window-maximized="1"
     inkscape:current-layer="svg1" />
  <path
     d="m 8.377,24.3585 2.344,-7.125 -5.828,-4.125 q -0.375,1.391 -0.375,2.906 0,2.391 1.016,4.602 1.016,2.211 2.844,3.742 z m 13.344,0.719 -6.016,-4.297 -6.078,4.484 q 2.625,1.719 5.891,1.719 3.375,0 6.203,-1.906 z m -14.016,-11.906 3.531,2.484 0.797,-2.484 z m 4.359,5.016 -1.438,4.391 3.734,-2.75 z m 3.61,0.64 2.984,-2.172 -1.188,-3.484 h -3.781 l -1.109,3.453 z m 4.968,3.563 -1.438,-4.203 -2.188,1.609 z m 5.469,-9.282 -5.594,4.125 2.391,6.906 q 2.297,-2.078 3.164,-5.063 0.867,-2.985 0.039,-5.969 z M 5.439,11.5935 h 7.109 l 2.141,-6.563 q -3.016,0.203 -5.523,1.984 -2.507,1.781 -3.727,4.578 z m 11.485,0 -1.406,-4.063 -1.313,4.063 z m -0.61,-6.563 2.281,6.563 h 6.969 q -1.203,-2.797 -3.703,-4.578 -2.5,-1.781 -5.547,-1.984 z m 2.813,8.141 0.875,2.484 3.359,-2.484 z m -3.61,-9.734 q 2.578,0 4.914,1.008 2.336,1.008 4,2.695 1.664,1.687 2.648,4.016 0.984,2.329 0.984,4.859 0,3.391 -1.688,6.281 -1.688,2.89 -4.578,4.578 -2.89,1.688 -6.281,1.688 -3.406,0 -6.305,-1.688 -2.899,-1.688 -4.586,-4.578 -1.687,-2.89 -1.688,-6.281 0,-2.094 0.703,-4.125 v -0.031 q 1.344,-3.766 4.602,-6.078 3.258,-2.312 7.242,-2.344 h 0.031 z"
     id="path1" />
</svg>
