<svg style="height: 512px; width: 512px;" xmlns="http://www.w3.org/2000/svg" viewBox="0 0 512 512"><defs><filter id="shadow-1" height="300%" width="300%" x="-100%" y="-100%"><feFlood flood-color="#999" result="flood"></feFlood><feComposite in="flood" in2="SourceGraphic" operator="atop" result="composite"></feComposite><feGaussianBlur in="composite" stdDeviation="1" result="blur"></feGaussianBlur><feOffset result="offset"></feOffset><feComposite in="SourceGraphic" in2="offset" operator="over"></feComposite></filter></defs><rect fill="#000" fill-opacity="0" height="512" width="512" rx="32" ry="32"></rect><g class="" style="" transform="translate(0,0)"><path d="M388.53 21.53c-38.006 30.546-63.492 66.122-83.952 103.687a508.13 508.13 0 0 0 38.516 21.38l88.744 34.04a512.855 512.855 0 0 0 41.51 9.625c13.493-42.908 19.872-85.824 19.433-128.73l-104.25-40zm-266.813 3.88 15.133 64.967 68.95 16.38-12.993-64.525-71.09-16.822zm-17.594 6.848L66.896 79.803l12.358 62.025 39.494-46.785-14.625-62.785zm27.783 76.148-37.094 43.97 52.165 7.718a738.183 738.183 0 0 1 21.716-5.967l27.62-30.408-64.407-15.314zm170.57 37.346 8.776 58.912c5.91 6.06 11.636 12.256 17.13 18.615l89.024 34.157 45.317-50.218c-54.72-11.1-108.31-30.82-160.248-61.468zm-70.09 13.482c-49.324 9.35-98.335 21.9-147.224 42.645 40.825 34.878 76.848 72.364 105.988 113.538l149.204-44.686c-26.533-41.862-66.002-77.02-107.97-111.498zM65.71 209.848C45.093 260.13 28.07 311.115 24.24 367.025c24.535 52.892 70.202 90.623 110.764 119.72l42.476-158.45c-29.975-42.853-68.05-81.942-111.77-118.447zm285.36 77.182-155.68 46.63-42.146 157.22c52.167-7.854 103.99-21.873 155.822-48.26 24.952-53.52 30.504-99.728 42.002-155.587z" fill="#ffffff" fill-opacity="1" filter="url(#shadow-1)"></path></g></svg>