<?xml version="1.0" encoding="UTF-8" standalone="no"?>
<!-- Created with Inkscape (http://www.inkscape.org/) -->

<svg
   width="210mm"
   height="297mm"
   viewBox="0 0 210 297"
   version="1.1"
   id="svg5"
   sodipodi:docname="fabulaultima.svg"
   inkscape:export-filename="fur-sl-star.svg"
   inkscape:export-xdpi="72"
   inkscape:export-ydpi="72"
   inkscape:version="1.2.2 (b0a8486541, 2022-12-01)"
   xml:space="preserve"
   xmlns:inkscape="http://www.inkscape.org/namespaces/inkscape"
   xmlns:sodipodi="http://sodipodi.sourceforge.net/DTD/sodipodi-0.dtd"
   xmlns="http://www.w3.org/2000/svg"
   xmlns:svg="http://www.w3.org/2000/svg"><sodipodi:namedview
     id="namedview7"
     pagecolor="#ffffff"
     bordercolor="#999999"
     borderopacity="1"
     inkscape:showpageshadow="0"
     inkscape:pageopacity="0"
     inkscape:pagecheckerboard="0"
     inkscape:deskcolor="#d1d1d1"
     inkscape:document-units="mm"
     showgrid="false"
     inkscape:zoom="1"
     inkscape:cx="658.5"
     inkscape:cy="103.5"
     inkscape:window-width="1506"
     inkscape:window-height="1247"
     inkscape:window-x="1934"
     inkscape:window-y="162"
     inkscape:window-maximized="0"
     inkscape:current-layer="g3767"
     showguides="false" /><defs
     id="defs2"><linearGradient
       id="linearGradient3762"
       inkscape:swatch="solid"><stop
         style="stop-color:#000000;stop-opacity:1;"
         offset="0"
         id="stop3760" /></linearGradient><linearGradient
       id="linearGradient3728"
       inkscape:swatch="solid"><stop
         style="stop-color:#000000;stop-opacity:1;"
         offset="0"
         id="stop3726" /></linearGradient></defs><g
     inkscape:label="Layer 1"
     inkscape:groupmode="layer"
     id="layer1"><path
       sodipodi:type="star"
       style="fill:#000000;stroke-width:0.264583"
       id="path336"
       inkscape:flatsided="false"
       sodipodi:sides="4"
       sodipodi:cx="49.255539"
       sodipodi:cy="56.46294"
       sodipodi:r1="18.141581"
       sodipodi:r2="7.2203493"
       sodipodi:arg1="1.5707963"
       sodipodi:arg2="2.3561945"
       inkscape:rounded="0.04397166"
       inkscape:randomized="0"
       d="m 49.255539,74.604521 c -0.61561,0 -4.670256,-12.600721 -5.105558,-13.036023 -0.435302,-0.435302 -13.036023,-4.489947 -13.036023,-5.105557 0,-0.615611 12.600721,-4.670256 13.036023,-5.105559 0.435302,-0.435302 4.489947,-13.036022 5.105557,-13.036022 0.615611,0 4.670257,12.60072 5.105559,13.036022 0.435302,0.435303 13.036023,4.489947 13.036023,5.105558 0,0.61561 -12.600721,4.670256 -13.036023,5.105558 -0.435302,0.435303 -4.489947,13.036023 -5.105558,13.036023 z"
       transform="translate(-28.861331,-29.96895)" /><path
       id="path336-7"
       style="fill:#000000;stroke-width:0.264583"
       d="m 63.532963,8.3519453 c -0.61561,0 -4.67033,12.6005947 -5.105631,13.0358957 -0.435302,0.435302 -13.035897,4.490022 -13.035897,5.105632 0,0.61561 12.600595,4.67033 13.035897,5.105631 0.435302,0.435302 4.490021,13.035897 5.105631,13.035897 0.61561,0 4.67033,-12.600595 5.105632,-13.035897 0.435302,-0.435301 13.035896,-4.490021 13.035896,-5.105631 0,-0.61561 -12.600594,-4.67033 -13.035896,-5.105632 C 68.203293,20.95254 64.148573,8.3519453 63.532963,8.3519453 Z M 63.352612,11.74967 c 0.494639,0 3.75283,10.124534 4.102592,10.474296 0.349763,0.349763 10.474296,3.607953 10.474296,4.102592 0,0.494639 -10.124533,3.752313 -10.474296,4.102075 -0.349762,0.349763 -3.607953,10.474296 -4.102592,10.474296 -0.494639,0 -3.752312,-10.124533 -4.102075,-10.474296 -0.349762,-0.349762 -10.474296,-3.607436 -10.474296,-4.102075 0,-0.494639 10.124534,-3.752829 10.474296,-4.102592 C 59.6003,21.874204 62.857973,11.74967 63.352612,11.74967 Z" /><path
       style="fill:none;stroke:#000000;stroke-width:2.5"
       d="m 63.66096,94.636961 c -0.61561,0 -4.670256,-12.600721 -5.105558,-13.036023 -0.435302,-0.435302 -13.036023,-4.489947 -13.036023,-5.105557 0,-0.615611 12.600721,-4.670256 13.036023,-5.105559 0.435302,-0.435302 4.489947,-13.036022 5.105557,-13.036022 0.615611,0 4.670257,12.60072 5.105559,13.036022 0.435302,0.435303 13.036025,4.489947 13.036025,5.105558 0,0.61561 -12.600723,4.670256 -13.036025,5.105558 -0.435302,0.435303 -4.489947,13.036023 -5.105558,13.036023 z"
       id="path166"
       inkscape:export-filename="fur-sl-star.svg"
       inkscape:export-xdpi="72"
       inkscape:export-ydpi="72" /><path
       style="fill:#000000;fill-opacity:1;stroke:#000000;stroke-width:2.5"
       d="m 20.498149,94.518408 c -0.61561,0 -4.670256,-12.600721 -5.105558,-13.036023 -0.435302,-0.435302 -13.0360228,-4.489947 -13.0360228,-5.105557 0,-0.615611 12.6007208,-4.670256 13.0360228,-5.105559 0.435302,-0.435302 4.489947,-13.036022 5.105557,-13.036022 0.615611,0 4.670257,12.60072 5.105559,13.036022 0.435302,0.435303 13.036025,4.489947 13.036025,5.105558 0,0.61561 -12.600723,4.670256 -13.036025,5.105558 -0.435302,0.435303 -4.489947,13.036023 -5.105558,13.036023 z"
       id="path166-5"
       inkscape:export-filename="fus-sl-star.svg"
       inkscape:export-xdpi="72"
       inkscape:export-ydpi="72" /><text
       xml:space="preserve"
       style="font-size:3.175px;fill:#000000;fill-opacity:1;stroke-width:0.264583"
       x="2.1278269"
       y="4.2153058"
       id="text961"><tspan
         sodipodi:role="line"
         id="tspan959"
         style="stroke-width:0.264583"
         x="2.1278269"
         y="4.2153058">V1</tspan></text><text
       xml:space="preserve"
       style="font-size:3.175px;fill:#000000;fill-opacity:1;stroke-width:0.264583"
       x="1.5197675"
       y="53.565113"
       id="text965"><tspan
         sodipodi:role="line"
         id="tspan963"
         style="stroke-width:0.264583"
         x="1.5197675"
         y="53.565113">V2</tspan></text><g
       id="g218"
       transform="matrix(2.3444218,0,0,2.3444218,76.875763,35.185581)"><path
         fill="none"
         d="M 0,0 H 24 V 24 H 0 Z"
         id="path206" /><path
         fill-rule="nonzero"
         d="m 18.442509,23.971964 c -5.544573,-5.533476 -4.957857,-5.272243 -11.825,-11.824 l -0.003,-3.5319996 3.546,0.003 c 0,0 7.403346,7.4376136 11.817,11.8179996 l 1.415,-1.414 0.736861,1.414 -1.571148,2.809273 1.405943,1.726746 c 0.285776,-0.02065 1.347658,0.213923 1.112944,0.399955 l -1.451599,1.451599 c -0.163824,0.193923 -0.394927,-1.088278 -0.396479,-1.213464 l -1.799754,-1.342024 -2.986768,1.854776 -1.414,-0.736861 1.414,-1.415 m -9.827,-13.355 v 0.7 l 11.241,11.241 0.707,-0.707 -11.233,-11.233 z"
         id="path416"
         sodipodi:nodetypes="cccccccccccccccccccccc"
         inkscape:export-filename="sword-line.svg"
         inkscape:export-xdpi="72"
         inkscape:export-ydpi="72" /><text
         xml:space="preserve"
         style="font-size:1.35428px;opacity:1;fill-opacity:1;fill-rule:nonzero;stroke-width:0.99982;stroke-dasharray:none"
         x="2.9549999"
         y="-13.308931"
         id="text5280"><tspan
           sodipodi:role="line"
           id="tspan5278"
           style="stroke-width:0.99982"
           x="2.9549999"
           y="-13.308931">Dual Wield</tspan></text><text
         xml:space="preserve"
         style="font-size:1.35428px;opacity:1;fill-opacity:1;fill-rule:nonzero;stroke-width:0.99982;stroke-dasharray:none"
         x="3.7392628"
         y="7.8561444"
         id="text5334"><tspan
           sodipodi:role="line"
           id="tspan5332"
           style="stroke-width:0.99982"
           x="3.7392628"
           y="7.8561444">Sword</tspan></text><g
         id="g3767"
         transform="translate(-11.229027,0.22571308)"><path
           id="path1007"
           d="m 36.492349,-12.250544 -3.546164,0.0031 c 0,0 -2.440055,2.4506651 -5.302494,5.3166008 2.094058,2.8358209 4.260213,-1.4451909 6.132607,-3.3175848 l 0.715052,-0.0011 v 0.7000633 c -1.914405,2.3969741 -5.832321,3.6372129 -3.384594,6.079044 1.208311,-1.2210153 2.741968,-2.728782 5.382507,-5.2480495 z m -13.061381,9.5299851 c -0.811204,0.8089796 -1.601395,1.5960921 -2.301656,2.29107599 L 19.714197,-1.843496 18.977324,-0.42948291 20.548497,2.3798073 19.142641,4.1066006 c -0.285775,-0.02065 -1.347628,0.2138157 -1.112915,0.3998472 l 1.451484,1.4517054 c 0.163823,0.193922 0.394989,-1.0884632 0.396541,-1.2136487 l 1.799752,-1.3419348 2.986731,1.854859 1.414013,-0.7368739 -1.414013,-1.4151152 C 25.551477,2.2199724 26.27269,1.4916928 26.900866,0.85205601 25.339712,-1.1899866 24.884001,0.05764685 23.250221,1.6914265 L 22.543325,0.98453021 c 1.111411,-1.00498734 1.776011,-1.52775904 1.840071,-2.09835111 0.04847,-0.431694 -0.246819,-0.8907604 -0.952428,-1.606738 z m 6.427109,5.8207068 c -5.544573,-5.533476 -4.957857,-5.272243 -11.825,-11.824 l -0.003,-3.5319989 3.546,0.003 c 0,0 7.403346,7.4376129 11.817,11.81799904 l 1.415,-1.41400004 0.736861,1.41400004 -1.571148,2.80927286 1.405943,1.726746 c 0.285776,-0.02065 1.347658,0.213923 1.112944,0.399955 L 35.041078,5.9527207 C 34.877254,6.1466437 34.646151,4.8644429 34.644599,4.7392569 l -1.799754,-1.342024 -2.986768,1.854776 -1.414,-0.736861 1.414,-1.415 m -9.827,-13.3549999 v 0.6999999 l 11.241,11.241 0.707,-0.70699998 -11.233,-11.23299992 z" /><path
           id="path416-2"
           d="m 44.592753,8.4026863 0.0031,3.5318367 c 6.497077,6.198687 6.329737,6.306397 10.987642,10.985438 1.23866,-1.238122 2.436637,-2.437863 3.530294,-3.53382 C 54.662682,14.959146 48.138697,8.4055518 48.138697,8.4055518 Z m 16.777932,10.4068277 -1.06861,1.067949 c 0.0016,0.0016 0.0031,0.003 0.0046,0.0046 l -4.228374,4.228373 c -0.0016,-0.0016 -0.003,-0.003 -0.0046,-0.0046 l -1.067068,1.067729 1.414013,0.736874 2.986951,-1.854859 1.799754,1.342155 c 0.0016,0.125186 0.232496,1.407351 0.39632,1.213428 l 1.451705,-1.451485 c 0.234714,-0.186031 -0.827139,-0.420717 -1.112915,-0.400067 l -1.406078,-1.726794 1.571175,-2.80929 z" /><text
           xml:space="preserve"
           style="font-size:1.35428px;fill-opacity:1;fill-rule:nonzero;stroke-width:0.99982;stroke-dasharray:none"
           x="43.409328"
           y="-13.544968"
           id="text5280-0"><tspan
             sodipodi:role="line"
             id="tspan5278-9"
             style="stroke-width:0.99982"
             x="43.409328"
             y="-13.544968">Dual Wield</tspan></text><text
           xml:space="preserve"
           style="font-size:1.35428px;fill-opacity:1;fill-rule:nonzero;stroke-width:0.99982;stroke-dasharray:none"
           x="44.124226"
           y="7.615149"
           id="text5334-3"><tspan
             sodipodi:role="line"
             id="tspan5332-6"
             style="stroke-width:0.99982"
             x="44.124226"
             y="7.615149">Sword</tspan></text><path
           id="path1007-0"
           d="m 44.933968,-12.371514 0.0031,3.5320574 c 6.497758,6.1993364 6.325152,6.3018622 10.984557,10.9823521 1.241371,-1.24084982 2.43496,-2.43617279 3.529853,-3.5333796 C 55.001008,-5.817143 48.479911,-12.368428 48.479911,-12.368428 Z m 18.462404,0.0053 -3.546164,0.0031 c 0,0 -2.440058,2.4506687 -5.302494,5.3166016 2.094056,2.835818 4.260214,-1.4451934 6.132606,-3.3175856 l 0.715052,-0.0011 v 0.7000631 c -1.914403,2.3969717 -5.832318,3.6372154 -3.384594,6.079044 1.20831,-1.221014 2.741971,-2.7287845 5.382508,-5.2480495 z m -1.684252,10.4017576 -1.077427,1.07654563 c 5.84e-4,6.0318e-4 9.56e-4,0.001159 0.0015,0.001763 l -4.228373,4.22837307 -0.0015,-0.00154 -1.058251,1.0589118 1.414013,0.7368738 2.986731,-1.8548589 1.799753,1.3419348 c 0.0016,0.1251858 0.232717,1.4075714 0.396541,1.2136486 l 1.451485,-1.451717 C 63.631306,4.1994466 62.569453,3.9649812 62.283677,3.9856312 L 60.877819,2.258838 62.448774,-0.55045227 Z M 50.402392,-2.898429 c -0.811204,0.8089796 -1.601395,1.5960921 -2.301656,2.29107604 L 46.685621,-2.0213661 45.948748,-0.60735296 47.519921,2.2019371 46.114065,3.9287305 C 45.82829,3.9080805 44.766437,4.1425462 45.00115,4.3285777 l 1.451484,1.4517051 c 0.163823,0.193922 0.394989,-1.0884629 0.396541,-1.2136484 l 1.799752,-1.3419348 2.986731,1.854859 1.414013,-0.7368739 -1.414013,-1.4151152 C 52.522901,2.0421022 53.244114,1.3138227 53.87229,0.67418586 52.311136,-1.3678567 51.855425,-0.12022324 50.221645,1.5135564 L 49.514749,0.80666006 c 1.111411,-1.0049872 1.776011,-1.52775892 1.840071,-2.09835106 0.04847,-0.431694 -0.246819,-0.8907604 -0.952428,-1.606738 z" /><path
           d="m 18.60364,26.961413 c -0.811204,0.808979 -1.601396,1.596093 -2.301657,2.291076 l -1.415115,-1.414022 -0.736874,1.414013 1.571175,2.80929 -1.405858,1.726793 c -0.285774,-0.02065 -1.347628,0.213816 -1.112915,0.399848 l 1.451485,1.451705 c 0.163823,0.193922 0.394989,-1.088463 0.396541,-1.213649 l 1.799753,-1.341934 2.986731,1.854859 1.414013,-0.736874 -1.414013,-1.415116 c 0.887242,-0.885466 1.608456,-1.613747 2.236631,-2.253383 -0.514797,-0.527266 -0.965835,-0.993095 -1.384476,-1.426798 -2.766902,2.681595 -3.582388,2.168596 -0.694332,-0.71946 -0.448939,-0.464599 -0.897693,-0.925944 -1.391089,-1.426357 z"
           id="path14887-5" /></g><path
         id="path416-6-2-0"
         d="m 16.780807,30.616044 c -1.344868,1.347961 -2.883909,2.889517 -4.464446,4.468634 0.449325,0.45016 0.474671,0.25048 0.954652,0.730923 l 4.228373,-4.228373 c -0.436827,-0.450417 -0.210282,-0.45957 -0.718579,-0.971184 z"
         sodipodi:nodetypes="ccccc" /></g></g></svg>
