<svg xmlns="http://www.w3.org/2000/svg" version="1.1" viewBox="-10 0 850 850" width="1.2em"><g transform="matrix(1 0 0 -1 0 850)"><path fill="currentColor" d="M147 748q-16 -9 -16 -33q0 -18 7.5 -36.5t20.5 -31.5l6 -7l26 -211l27 -210l60 60l-42 340h73q69 0 93 -2q108 -12 195 -83l14 -12l-181 -180l-181 -181l-39 -1q-26 -1 -33 -1.5t-13 -3.5t-19 -15q-10 -9 -37 -35l-44 -45h36q50 0 66 -1l30 -1v-132l53 53q26 27 33 35
q10 13 13 24q2 8 3 31v43l181 181l181 180l12 -14q28 -34 47.5 -74.5t28.5 -83.5q5 -24 6.5 -53t1.5 -83v-65h-4q-3 0 -52 6q-58 7 -119 15l-165 21l-30 -30q-29 -29 -27.5 -31t209.5 -27l208 -26l12 -10q22 -18 46.5 -22.5t39 3t16 24.5t-7.5 27t-26 11h-1q-15 2 -18.5 4
t-7.5 8.5t-4.5 20t-1.5 84.5v1q-1 78 -3 101t-12 59q-23 87 -83 161l-17 21l11 12q10 12 35 37l25 25l22 -22q15 -15 18.5 -17.5t4.5 1.5q4 15 18 88t13 73.5t-82.5 -15.5t-83 -16.5t20.5 -22.5l21 -21l-36 -36l-36 -37l-12 10q-97 84 -224 102q-22 4 -113 5h-10
q-55 1 -69 2q-21 1 -27 7q-4 4 -6 19v3q-2 13 -5.5 20t-11.5 10.5t-18 3.5t-16 -4z"></path></g></svg>