<svg xmlns="http://www.w3.org/2000/svg" version="1.1" viewBox="-10 0 981 1000" width="1.2em"><g transform="matrix(1 0 0 -1 0 800)"><path fill="currentColor" d="M463 -11q5 19 -81 119l491 405l44 189l-195 -21l-440 -465q-94 93 -114 89q-20 -3 -75 -16q40 -25 79 -70q13 -15 20 -44q9 -33 24 -55l-94 -88q-33 4 -57.5 -18.5t-24.5 -55.5q0 -29 21 -51.5t54 -22.5q29 0 51 20.5t23 51.5l97 90q20 -15 51 -25q26 -9 39 -21.5
t24 -25.5q26 -31 41 -59q12 32 22 74zM94 -60q-17 18 1 35t35 -1q17 -19 -1 -36t-35 2z"></path></g></svg>