<svg xmlns="http://www.w3.org/2000/svg" version="1.1" viewBox="-10 0 1020 1000" width="1em" stroke="#000000" paint-order="stroke markers fill" style="vertical-align: text-bottom;"><g transform="matrix(1 0 0 -1 0 801)"><path fill="currentColor" d="M652 300c0 80 -66 144 -146 144s-145 -63 -145 -144c0 -80 65 -144 145 -144s146 64 146 144zM1000 372v-142l-185 -26c-6 -17 -13 -34 -21 -50l120 -157l-102 -100l-159 118c-16 -8 -34 -15 -51 -21l-30 -194h-143l-27 197c-15 5 -29 11 -43 18l-161 -119l-101 100
l121 160c-8 15 -14 30 -19 46l-199 28v142l199 28c5 15 12 31 19 45l-120 159l101 100l160 -119c15 8 31 14 47 20l28 195h143l28 -195c16 -5 33 -12 48 -19l158 117l102 -100l-119 -156c8 -16 15 -32 20 -48z"></path></g></svg>