<svg xmlns="http://www.w3.org/2000/svg" version="1.1" viewBox="-10 0 1059 1059" width="1.2em" style="vertical-align: text-bottom;"><g transform="matrix(1 0 0 -1 0 800)"><path fill="currentColor" d="M945 431h-291l-90 276q-9 29 -40 29t-41 -29l-90 -276h-290q-18 0 -30.5 -12.5t-12.5 -30.5q0 -22 18 -34l235 -171l-90 -277q-2 -6 -2 -13q0 -17 12.5 -29.5t30.5 -12.5q13 0 25 8l235 171l235 -171q11 -8 25 -8q17 0 29.5 12.5t12.5 29.5q0 7 -2 13l-89 277l235 171
q17 12 17 34q0 18 -12.5 30.5t-29.5 12.5zM524 556l41 -125h-82zM234 346h132l-25 -78zM345 5l40 125l66 -48zM413 215l42 131h137l43 -131l-111 -80zM596 82l66 48l41 -125zM707 268l-25 78h132z"></path></g></svg>