<svg xmlns="http://www.w3.org/2000/svg" version="1.1" viewBox="-60 -120 1200 1200" width="1.2em" stroke="#000000" stroke-width="100" paint-order="stroke markers fill" style="vertical-align: text-bottom;"><g transform="matrix(1 0 0 -1 0 800)"><path fill="#ed153e" d="M940 577q-6 54 -27 93q-50 94 -161 97q72 -55 72 -137q0 -17 -3 -31q-19 -69 -126 -118q-84 48 -187 48q-109 0 -196 -53q-117 50 -137 123q-4 14 -4 31q0 82 73 137q-112 -3 -161 -97q-21 -39 -28 -93q-9 -157 134 -236q-36 -71 -36 -141q0 -75 45 -133.5t127 -88.5
q25 -132 42 -132q13 0 41 54q7 -1 11 -2q27 -2 41 10q20 -15 45 -15t44 14q14 -11 39 -9l14 2q28 -52 41 -52q16 0 41 128q86 30 132 89t46 135q0 74 -41 150q128 80 119 227zM357 112q-40 0 -68.5 33.5t-28.5 80.5t28.5 80.5t68.5 33.5t68.5 -33.5t28.5 -80.5t-28.5 -80.5
t-68.5 -33.5zM508 15q-24 0 -35 14q-7 7 -7 19q0 18 14 36.5t27 18.5q14 0 25.5 -20t11.5 -39q0 -29 -36 -29zM649 112q-40 0 -68.5 33.5t-28.5 80.5t28.5 80.5t68.5 33.5q41 0 69.5 -33.5t28.5 -80.5t-28.5 -80.5t-69.5 -33.5z"></path></g></svg>