<svg xmlns="http://www.w3.org/2000/svg" version="1.1" viewBox="-60 -120 1200 1200" width="1.2em" stroke="#000000" stroke-width="100" paint-order="stroke markers fill" style="vertical-align: text-bottom;"><g transform="matrix(1 0 0 -1 0 1024)"><path fill="#cc8d2e" d="M447 1024q-22 -7 -175 -54l-175 -54l-63 -240l126 57l39 -172l-82 73l-62 -70l307 -297l38 158l142 -425l350 57l99 444l-184 325zM321 915q-4 -5 -30 -44l-31 -43l-7 -161l-59 195zM360 711q15 -21 124 -170l123 -169l229 -74l-234 2l-242 279v132zM120 353
q20 -21 153 -167l154 -168l-13 144l-294 191v0z"></path></g></svg>