<svg xmlns="http://www.w3.org/2000/svg" version="1.1" viewBox="-60 -120 1200 1200" width="1.2em" stroke="#000000" stroke-width="100" paint-order="stroke markers fill" style="vertical-align: text-bottom;"><g transform="matrix(1 0 0 -1 0 1024)"><path fill="#f79010" d="M159 1023q-10 0 -19 -1q-79 -12 -116 -80.5t-16 -162.5q11 -45 33 -82v0q5 -7 11 -14q19 -19 41.5 -22t38 12.5t13 39t-21.5 44.5q-2 -13 -11.5 -21t-23.5 -8t-24 10t-11 25q0 6 2 11q16 36 46.5 61t72.5 33q50 9 93.5 -10t70.5 -58q14 -43 12 -77q-2 -32 -12 -62.5
t-25 -62.5q-21 -45 -37.5 -100t-11.5 -127q2 -96 49.5 -179.5t135.5 -137.5q140 -78 286 -40.5t231 172.5q78 140 41 286t-173 232q-43 25 -89 38q74 -59 96 -147t-16 -175q-2 14 -5 28q-26 91 -101.5 136.5t-167.5 25.5q-29 -9 -54 -24q61 7 109 -24t64 -90
q15 -65 -16.5 -118.5t-95.5 -71.5q-33 -8 -65 -3q-24 9 -47 22q-48 29 -79 72q-28 53 -33 104t15 102l1 2q15 33 27 67t14 73q1 30 -6 63q-2 20 -7 40q-23 87 -84 142.5t-135 56.5v0zM774 898q-48 1 -86.5 -32t-59.5 -102q57 55 179.5 6t216.5 -216q-24 166 -96.5 254.5
t-153.5 89.5v0z"></path></g></svg>