<svg xmlns="http://www.w3.org/2000/svg" version="1.1" viewBox="-60 -120 1200 1200" width="1.2em" stroke="#000000" stroke-width="100" paint-order="stroke markers fill" style="vertical-align: text-bottom;"><g transform="matrix(1 0 0 -1 0 1024)"><path fill="#b3e7fb" d="M69 256q12 -7 99 -57l98 -57l47 155l115 -67l-111 -118l195 -112l196 113l-111 118l116 66l47 -154l195 113v225l-157 -37v134l157 -37v227l-195 112l-46 -154l-116 67l111 117l-197 114l-196 -113l111 -118l-115 -67l-47 155l-196 -113v-228l157 37v-132l-157 36v-225v0
zM319 319q1 4 8 25l7 24l137 69l8 -153l-35 -37l-125 72v0v0zM249 439v72v71l51 12l129 -84l-129 -83l-51 12v0zM581 248q-2 2 -17 18l-17 18l9 154l136 -70l14 -47l-125 -73v0v0zM333 655q-1 3 -7 24l-8 24l125 73l35 -37l-8 -152l-137 68v0v0zM601 510q8 5 64 42l63 42
l47 -11v-145l-47 -11l-127 83v0v0zM557 587q0 9 -4 76l-5 76l34 36l125 -72l-14 -47l-136 -69v0v0z"></path></g></svg>