<svg xmlns="http://www.w3.org/2000/svg" version="1.1" viewBox="-60 -120 1200 1200" width="1.2em" stroke="#000000" stroke-width="100" paint-order="stroke markers fill" style="vertical-align: text-bottom;"><g transform="matrix(1 0 0 -1 0 1024)"><path fill="#fffa99" d="M73 1024q16 -20 125 -156l125 -156q-38 -32 -60 -78l-262 124v-136l245 -41q-3 -20 -3 -40q0 -12 1 -23l-156 -59l171 -2q14 -33 37 -60l-295 -284v-113h102l228 364q38 -29 86 -40l-51 -324h225l-88 322q28 6 53 17l80 -91l-46 111q23 15 41 36l393 -317v236l-357 138
q14 31 18 67l182 56l-187 15q-7 32 -23 60l367 189v175l-395 -326q-17 20 -38 34l33 83l-65 -64q-31 15 -66 19l46 264h-87l3 -262q-63 -3 -112 -36l-184 298h-86z"></path></g></svg>