<svg xmlns="http://www.w3.org/2000/svg" version="1.1" viewBox="-60 -120 1200 1200" width="1.2em" stroke="#000000" stroke-width="100" paint-order="stroke markers fill" style="vertical-align: text-bottom;"><g transform="matrix(1 0 0 -1 0 800)"><path fill="#d757a1" d="M276 221v-15q0 -28 19 -47t47 -21q29 -2 43 10q22 -16 49 -16q25 0 46 15q14 -11 41 -9q28 3 47 21.5t19 46.5v11q108 28 167 94q57 63 57 149q0 19 -4 40q-20 128 -118 211q-103 89 -251 89t-251 -88q-98 -84 -117 -212q-4 -21 -4 -40q0 -84 55 -147t155 -92zM587 605
q43 0 72.5 -34.5t29.5 -83.5t-29.5 -83.5t-72.5 -34.5q-42 0 -71.5 34.5t-29.5 83.5t29.5 83.5t71.5 34.5zM438 360q14 0 26.5 -21t12.5 -40q0 -29 -38 -29q-25 0 -37 13q-7 8 -7 20q0 19 14.5 38t28.5 19zM280 605q42 0 72 -34.5t30 -83.5t-30 -83.5t-72 -34.5t-72 34.5
t-30 83.5t30 83.5t72 34.5zM703 -45l-133 49l135 49q34 -22 63 -22q32 0 42 33q2 7 2 15q0 42 -54 45q22 22 22 43q0 22 -23 37q-12 6 -25 6q-44 0 -60 -71l-234 -87l-234 85q-16 73 -60 73q-13 0 -25 -6q-22 -15 -22 -37q0 -21 22 -43q-55 -3 -55 -45q0 -8 2 -15
q11 -33 42 -33q29 0 63 22l136 -49l-134 -48q-35 25 -62 25q-32 0 -45 -33q-2 -7 -2 -15q0 -42 55 -45q-22 -22 -22 -43q0 -22 22 -37q14 -8 27 -8q41 0 59 70l233 85l233 -85q18 -70 60 -70q12 0 26 8q23 15 23 37q0 21 -22 43q54 3 54 45q0 8 -2 15q-12 33 -44 33
q-27 0 -63 -26z"></path></g></svg>