<svg xmlns="http://www.w3.org/2000/svg" version="1.1" viewBox="-60 -120 1200 1200" width="1.2em" stroke="#000000" stroke-width="100" paint-order="stroke markers fill"><g transform="matrix(1 0 0 -1 0 1024)"><path fill="#d8d7d7" d="M2 61q1 -26 18 -43t43 -18q23 1 39 14.5t20 35.5l-69 70q-22 -4 -36 -20t-15 -39v0zM96 132q3 -2 19 -18l18 -18q62 26 107.5 68.5t78.5 99.5q-27 26 -53 54q-113 -72 -170 -186v0zM137 656q1 -7 5 -55l4 -55q77 -127 175 -228t223 -170l110 -9l-40 94l-79 -7l-6 4
q-94 57 -171.5 130.5t-129.5 171.5l-2 5l6 78zM279 523q19 -32 41 -61q78 75 169.5 137.5t185.5 106.5l51 24l-24 -50q-45 -94 -107 -185t-136 -169q30 -23 62 -44q153 165 280.5 356t220.5 386q-194 -92 -386 -220t-357 -281v0zM345 431q38 -43 82 -80q62 64 115.5 138.5
t95.5 153.5q-78 -42 -153.5 -96t-139.5 -116v0z"></path></g></svg>