<svg xmlns="http://www.w3.org/2000/svg" version="1.1" viewBox="-60 -120 1200 1200" width="1.2em" stroke="#000000" stroke-width="100" paint-order="stroke markers fill"><g transform="matrix(1 0 0 -1 0 1024)"><path fill="#bade15" d="M314 1024h-28q543 -93 373 -327t-658 -158v-62q353 -70 585.5 74.5t134.5 325.5q121 -106 10 -299t-477 -262q130 29 237 91t168 151v0q-128 -121 -305 -163.5t-353 -16.5v-147q171 -30 354 20.5t327 190.5q-110 -150 -297.5 -232.5t-383.5 -73.5v-135q621 25 881 312.5
t43 533.5q125 -265 -105.5 -489.5t-555.5 -239.5q419 91 558.5 397.5t-169.5 469.5q-140 38 -339 39v0z"></path></g></svg>