<?xml version="1.0" encoding="UTF-8"?>
<svg id="Layer_2" data-name="Layer 2" xmlns="http://www.w3.org/2000/svg" viewBox="0 0 277.17 356.88">
  <defs>
    <style>
      .cls-1 {
        stroke-width: 0px;
      }
    </style>
  </defs>
  <g id="Layer_1-2" data-name="Layer 1">
    <path class="cls-1" d="M255.17,22l-79.34,126.64,67.05,14.9L22,334.88l79.34-134.09-67.05-14.9L255.17,22M255.17,0c-4.59,0-9.19,1.43-13.1,4.33L21.18,168.22c-6.92,5.13-10.2,13.83-8.41,22.25,1.79,8.42,8.34,15.03,16.74,16.89l37.44,8.32L3.07,323.68c-5.38,9.09-3.54,20.72,4.38,27.7,4.14,3.65,9.34,5.5,14.55,5.5,4.75,0,9.5-1.53,13.48-4.62l220.88-171.34c6.74-5.23,9.85-13.88,7.98-22.2-1.87-8.32-8.37-14.81-16.69-16.66l-36.64-8.14,62.8-100.24c5.62-8.96,4.06-20.66-3.71-27.84-4.19-3.88-9.55-5.84-14.94-5.84h0Z"/>
  </g>
</svg>