<?xml version="1.0" encoding="UTF-8"?>
<svg id="Layer_2" data-name="Layer 2" xmlns="http://www.w3.org/2000/svg" viewBox="0 0 277.17 356.88">
  <defs>
    <style>
      .cls-1 {
        fill: #cd1719;
      }

      .cls-1, .cls-2 {
        stroke-width: 0px;
      }
    </style>
  </defs>
  <g id="Layer_1-2" data-name="Layer 1">
    <g>
      <path class="cls-1" d="M22,345.88c-2.6,0-5.2-.92-7.28-2.75-3.96-3.49-4.88-9.31-2.19-13.85l71.62-121.04-52.24-11.61c-4.2-.93-7.48-4.24-8.37-8.45-.9-4.21.75-8.56,4.2-11.13L248.62,13.17c1.96-1.45,4.26-2.17,6.55-2.17,2.69,0,5.37.98,7.47,2.92,3.88,3.59,4.66,9.44,1.86,13.92l-71.07,113.44,51.84,11.52c4.16.93,7.42,4.17,8.35,8.33s-.62,8.48-3.99,11.1L28.74,343.57c-1.99,1.54-4.37,2.31-6.74,2.31Z"/>
      <path class="cls-2" d="M255.17,22l-79.34,126.64,67.05,14.9L22,334.88l79.34-134.09-67.05-14.9L255.17,22M255.17,0c-4.59,0-9.19,1.43-13.1,4.33L21.18,168.22c-6.92,5.13-10.2,13.83-8.41,22.25,1.79,8.42,8.34,15.03,16.74,16.89l37.44,8.32L3.07,323.68c-5.38,9.09-3.54,20.72,4.38,27.7,4.14,3.65,9.34,5.5,14.55,5.5,4.75,0,9.5-1.53,13.48-4.62l220.88-171.34c6.74-5.23,9.85-13.88,7.98-22.2-1.87-8.32-8.37-14.81-16.69-16.66l-36.64-8.14,62.8-100.24c5.62-8.96,4.06-20.66-3.71-27.84-4.19-3.88-9.55-5.84-14.94-5.84h0Z"/>
    </g>
  </g>
</svg>